<?xml version="1.0" encoding="utf-8"?>
<!-- Generator: Adobe Illustrator 27.5.0, SVG Export Plug-In . SVG Version: 6.00 Build 0)  -->
<svg version="1.1" id="Layer_1" xmlns="http://www.w3.org/2000/svg" xmlns:xlink="http://www.w3.org/1999/xlink" x="0px" y="0px"
	 viewBox="0 0 2800 2000" style="enable-background:new 0 0 2800 2000;" xml:space="preserve">
<g>
	<rect x="0.001" style="fill:#FFFFFF;" width="2800" height="2000"/>
	<linearGradient id="SVGID_1_" gradientUnits="userSpaceOnUse" x1="210.6801" y1="1036.2261" x2="2589.322" y2="1036.2261">
		<stop  offset="0" style="stop-color:#BCE3F1"/>
		<stop  offset="1" style="stop-color:#D0F7FF"/>
	</linearGradient>
	<path style="fill:url(#SVGID_1_);" d="M1674.09,261.734c0,0-362.519-115.156-706.35,135.937
		c-343.831,251.093-292.184,606.413-292.184,606.413s-385.878,64.58-447.702,399.606s63.151,448.171,63.151,448.171l2153.847,4.268
		c0,0,335.523-923.323-16.074-1358.342C2077.18,62.768,1674.09,261.734,1674.09,261.734z"/>
	<path style="opacity:0.26;fill:#FFFFFF;" d="M706.733,788.509c109.564,0.521,222.762,10.151,325.771-19.304
		c91.652-26.207,167.216-81.45,260.572-103.597c31.809-7.546,65.045-11.066,96.487-19.516c31.441-8.45,62.145-22.919,77.938-45.971
		c22.705-33.142,7.849-76.426-24.625-104.047c-32.475-27.621-78.892-42.264-125.007-52.044
		c-21.842-4.632-44.377-8.493-63.834-17.589c-38.925-18.2-58.313-53.4-84.24-82.655c-12.319-13.9-26.573-26.705-42.354-38.214
		c-44.664,19.57-90.022,44.154-135.215,74.85c17.439,7.901,32.624,18.149,43.616,31.599c16.431,20.103,21.694,45.456,41.499,63.566
		c21.321,19.497,55.655,26.873,88.244,28.31c28.332,1.25,64.42,2.559,74.071,23.611c5.382,11.743-1.313,25.373-12.973,33.819
		c-11.658,8.445-27.353,12.532-42.888,14.925c-50.876,7.837-104.027-0.103-154.964,7.486
		c-78.761,11.734-141.797,58.607-217.826,78.625c-24.475,6.444-49.929,9.991-75.63,12.15
		c-18.463,39.657-31.645,78.144-40.989,113.985C698.502,788.486,702.619,788.49,706.733,788.509z"/>
	<path style="opacity:0.26;fill:#FFFFFF;" d="M2377.691,1446.318c-102.5,0.623-199.713-30.433-302.101-33.53
		c-62.697-1.897-126.167,6.748-187.942-0.272c-61.777-7.019-124.785-37.707-120.688-77.25c3.438-33.188,51.605-57.314,99.58-71.055
		c84.205-24.117,181.272-29.888,271.13-16.121c81.528,12.492,156.343,40.342,239.218,48.574
		c67.708,6.726,138.654-0.444,199.781-19.987c9.162-81.588,14.17-166.406,12.239-250.618c-26.389,7.359-48.896,19.581-71.444,31.108
		c-51.082,26.115-106.152,49.923-167.82,64.285c-156.108,36.358-330.954,8.056-495.307,24.459
		c-113.594,11.336-218.816,43.68-322.09,75.625c-34.258,10.597-68.593,21.221-100.857,34.071
		c-14.74,5.871-29.526,12.539-37.979,22.162c-6.801,7.742-8.909,16.748-10.221,25.563c-4.518,30.337-0.388,62.341,24.024,88.626
		c11.84,12.749,28.063,23.716,45.989,33.22c71.421,37.867,167.152,52.008,260.055,57.21s187.005,2.703,278.89,12.804
		c95.728,10.524,186.613,34.47,281.92,46.421c79.024,9.908,160,11.442,240.533,12.946c4.941,0.092,9.882,0.185,14.823,0.276
		c9.147-40.958,18.022-84.801,26.015-130.689C2496.698,1434.526,2438.361,1445.95,2377.691,1446.318z"/>
	<g>
		<g>
			<rect x="2156.133" y="1376.516" style="fill:#977D80;" width="3.406" height="91.21"/>
			<rect x="2122.923" y="1435.722" style="fill:#977D80;" width="69.827" height="64.008"/>
			<rect x="2105.893" y="1462.392" style="fill:#977D80;" width="103.889" height="350.972"/>
			<g>
				<g>
					<rect x="2115.279" y="1469.726" style="fill:#C1B1B3;" width="13.625" height="12.802"/>
					<rect x="2137.973" y="1469.726" style="fill:#C1B1B3;" width="13.625" height="12.802"/>
					<rect x="2160.668" y="1469.726" style="fill:#C1B1B3;" width="13.625" height="12.802"/>
					<rect x="2183.363" y="1469.726" style="fill:#C1B1B3;" width="13.625" height="12.802"/>
				</g>
				<g>
					<rect x="2115.279" y="1496.527" style="fill:#C1B1B3;" width="13.625" height="12.802"/>
					<rect x="2137.973" y="1496.527" style="fill:#C1B1B3;" width="13.625" height="12.802"/>
					<rect x="2160.668" y="1496.527" style="fill:#C1B1B3;" width="13.625" height="12.802"/>
					<rect x="2183.363" y="1496.527" style="fill:#C1B1B3;" width="13.625" height="12.802"/>
				</g>
				<g>
					<rect x="2115.279" y="1523.329" style="fill:#C1B1B3;" width="13.625" height="12.801"/>
					<rect x="2137.973" y="1523.329" style="fill:#C1B1B3;" width="13.625" height="12.801"/>
					<rect x="2160.668" y="1523.329" style="fill:#C1B1B3;" width="13.625" height="12.801"/>
					<rect x="2183.363" y="1523.329" style="fill:#C1B1B3;" width="13.625" height="12.801"/>
				</g>
				<g>
					<rect x="2115.279" y="1550.131" style="fill:#C1B1B3;" width="13.625" height="12.802"/>
					<rect x="2137.973" y="1550.131" style="fill:#C1B1B3;" width="13.625" height="12.802"/>
					<rect x="2160.668" y="1550.131" style="fill:#C1B1B3;" width="13.625" height="12.802"/>
					<rect x="2183.363" y="1550.131" style="fill:#C1B1B3;" width="13.625" height="12.802"/>
				</g>
				<g>
					<rect x="2115.279" y="1576.933" style="fill:#C1B1B3;" width="13.625" height="12.802"/>
					<rect x="2137.973" y="1576.933" style="fill:#C1B1B3;" width="13.625" height="12.802"/>
					<rect x="2160.668" y="1576.933" style="fill:#C1B1B3;" width="13.625" height="12.802"/>
					<rect x="2183.363" y="1576.933" style="fill:#C1B1B3;" width="13.625" height="12.802"/>
				</g>
				<g>
					<rect x="2115.279" y="1603.734" style="fill:#C1B1B3;" width="13.625" height="12.801"/>
					<rect x="2137.973" y="1603.734" style="fill:#C1B1B3;" width="13.625" height="12.801"/>
					<rect x="2160.668" y="1603.734" style="fill:#C1B1B3;" width="13.625" height="12.801"/>
					<rect x="2183.363" y="1603.734" style="fill:#C1B1B3;" width="13.625" height="12.801"/>
				</g>
				<g>
					<rect x="2115.279" y="1630.535" style="fill:#C1B1B3;" width="13.625" height="12.802"/>
					<rect x="2137.973" y="1630.535" style="fill:#C1B1B3;" width="13.625" height="12.802"/>
					<rect x="2160.668" y="1630.535" style="fill:#C1B1B3;" width="13.625" height="12.802"/>
					<rect x="2183.363" y="1630.535" style="fill:#C1B1B3;" width="13.625" height="12.802"/>
				</g>
				<g>
					<rect x="2115.279" y="1657.338" style="fill:#C1B1B3;" width="13.625" height="12.801"/>
					<rect x="2137.973" y="1657.338" style="fill:#C1B1B3;" width="13.625" height="12.801"/>
					<rect x="2160.668" y="1657.338" style="fill:#C1B1B3;" width="13.625" height="12.801"/>
					<rect x="2183.363" y="1657.338" style="fill:#C1B1B3;" width="13.625" height="12.801"/>
				</g>
				<g>
					<rect x="2115.279" y="1684.139" style="fill:#C1B1B3;" width="13.625" height="12.802"/>
					<rect x="2137.973" y="1684.139" style="fill:#C1B1B3;" width="13.625" height="12.802"/>
					<rect x="2160.668" y="1684.139" style="fill:#C1B1B3;" width="13.625" height="12.802"/>
					<rect x="2183.363" y="1684.139" style="fill:#C1B1B3;" width="13.625" height="12.802"/>
				</g>
				<g>
					<rect x="2115.279" y="1710.94" style="fill:#C1B1B3;" width="13.625" height="12.802"/>
					<rect x="2137.973" y="1710.94" style="fill:#C1B1B3;" width="13.625" height="12.802"/>
					<rect x="2160.668" y="1710.94" style="fill:#C1B1B3;" width="13.625" height="12.802"/>
					<rect x="2183.363" y="1710.94" style="fill:#C1B1B3;" width="13.625" height="12.802"/>
				</g>
				<g>
					<rect x="2115.279" y="1737.742" style="fill:#C1B1B3;" width="13.625" height="12.801"/>
					<rect x="2137.973" y="1737.742" style="fill:#C1B1B3;" width="13.625" height="12.801"/>
					<rect x="2160.668" y="1737.742" style="fill:#C1B1B3;" width="13.625" height="12.801"/>
					<rect x="2183.363" y="1737.742" style="fill:#C1B1B3;" width="13.625" height="12.801"/>
				</g>
				<g>
					<rect x="2115.279" y="1764.544" style="fill:#C1B1B3;" width="13.625" height="12.802"/>
					<rect x="2137.973" y="1764.544" style="fill:#C1B1B3;" width="13.625" height="12.802"/>
					<rect x="2160.668" y="1764.544" style="fill:#C1B1B3;" width="13.625" height="12.802"/>
					<rect x="2183.363" y="1764.544" style="fill:#C1B1B3;" width="13.625" height="12.802"/>
				</g>
				<g>
					<rect x="2115.279" y="1791.346" style="fill:#C1B1B3;" width="13.625" height="12.801"/>
					<rect x="2137.973" y="1791.346" style="fill:#C1B1B3;" width="13.625" height="12.801"/>
					<rect x="2160.668" y="1791.346" style="fill:#C1B1B3;" width="13.625" height="12.801"/>
					<rect x="2183.363" y="1791.346" style="fill:#C1B1B3;" width="13.625" height="12.801"/>
				</g>
			</g>
			<g>
				<path style="fill:#FFFFFF;" d="M2317.271,1811.361h-113.434v-533.209h11.916c56.066,0,101.518,45.452,101.518,101.519V1811.361z
					"/>
				<g>
					<g>
						<rect x="2214.057" y="1345.786" style="fill:#D8CFBF;" width="15.328" height="53.773"/>
						<rect x="2234.209" y="1345.786" style="fill:#D8CFBF;" width="15.328" height="53.773"/>
						<rect x="2254.363" y="1345.786" style="fill:#D8CFBF;" width="15.328" height="53.773"/>
						<rect x="2274.516" y="1345.786" style="fill:#D8CFBF;" width="15.328" height="53.773"/>
					</g>
					<g>
						<rect x="2214.057" y="1413.099" style="fill:#D8CFBF;" width="15.328" height="53.773"/>
						<rect x="2234.209" y="1413.099" style="fill:#D8CFBF;" width="15.328" height="53.773"/>
						<rect x="2254.363" y="1413.099" style="fill:#D8CFBF;" width="15.328" height="53.773"/>
						<rect x="2274.516" y="1413.099" style="fill:#D8CFBF;" width="15.328" height="53.773"/>
					</g>
					<g>
						<rect x="2214.057" y="1480.411" style="fill:#D8CFBF;" width="15.328" height="53.773"/>
						<rect x="2234.209" y="1480.411" style="fill:#D8CFBF;" width="15.328" height="53.773"/>
						<rect x="2254.363" y="1480.411" style="fill:#D8CFBF;" width="15.328" height="53.773"/>
						<rect x="2274.516" y="1480.411" style="fill:#D8CFBF;" width="15.328" height="53.773"/>
					</g>
					<g>
						<rect x="2214.057" y="1547.724" style="fill:#D8CFBF;" width="15.328" height="53.773"/>
						<rect x="2234.209" y="1547.724" style="fill:#D8CFBF;" width="15.328" height="53.773"/>
						<rect x="2254.363" y="1547.724" style="fill:#D8CFBF;" width="15.328" height="53.773"/>
						<rect x="2274.516" y="1547.724" style="fill:#D8CFBF;" width="15.328" height="53.773"/>
					</g>
					<g>
						<rect x="2214.057" y="1615.037" style="fill:#D8CFBF;" width="15.328" height="53.772"/>
						<rect x="2234.209" y="1615.037" style="fill:#D8CFBF;" width="15.328" height="53.772"/>
						<rect x="2254.363" y="1615.037" style="fill:#D8CFBF;" width="15.328" height="53.772"/>
						<rect x="2274.516" y="1615.037" style="fill:#D8CFBF;" width="15.328" height="53.772"/>
					</g>
					<g>
						<rect x="2214.057" y="1682.35" style="fill:#D8CFBF;" width="15.328" height="53.772"/>
						<rect x="2234.209" y="1682.35" style="fill:#D8CFBF;" width="15.328" height="53.772"/>
						<rect x="2254.363" y="1682.35" style="fill:#D8CFBF;" width="15.328" height="53.772"/>
						<rect x="2274.516" y="1682.35" style="fill:#D8CFBF;" width="15.328" height="53.772"/>
					</g>
					<g>
						<rect x="2214.057" y="1749.662" style="fill:#D8CFBF;" width="15.328" height="53.772"/>
						<rect x="2234.209" y="1749.662" style="fill:#D8CFBF;" width="15.328" height="53.772"/>
						<rect x="2254.363" y="1749.662" style="fill:#D8CFBF;" width="15.328" height="53.772"/>
						<rect x="2274.516" y="1749.662" style="fill:#D8CFBF;" width="15.328" height="53.772"/>
					</g>
				</g>
			</g>
			<rect x="2333.033" y="1496.527" style="fill:#977D80;" width="63.518" height="53.701"/>
			<rect x="2317.541" y="1518.903" style="fill:#977D80;" width="94.502" height="294.46"/>
			<g>
				<g>
					<rect x="2326.08" y="1525.056" style="fill:#D8CFBF;" width="12.393" height="10.74"/>
					<rect x="2346.723" y="1525.056" style="fill:#D8CFBF;" width="12.394" height="10.74"/>
					<rect x="2367.367" y="1525.056" style="fill:#D8CFBF;" width="12.394" height="10.74"/>
					<rect x="2388.012" y="1525.056" style="fill:#D8CFBF;" width="12.393" height="10.74"/>
				</g>
				<g>
					<rect x="2326.08" y="1547.542" style="fill:#D8CFBF;" width="12.393" height="10.741"/>
					<rect x="2346.723" y="1547.542" style="fill:#D8CFBF;" width="12.394" height="10.741"/>
					<rect x="2367.367" y="1547.542" style="fill:#D8CFBF;" width="12.394" height="10.741"/>
					<rect x="2388.012" y="1547.542" style="fill:#D8CFBF;" width="12.393" height="10.741"/>
				</g>
				<g>
					<rect x="2326.08" y="1570.029" style="fill:#D8CFBF;" width="12.393" height="10.74"/>
					<rect x="2346.723" y="1570.029" style="fill:#D8CFBF;" width="12.394" height="10.74"/>
					<rect x="2367.367" y="1570.029" style="fill:#D8CFBF;" width="12.394" height="10.74"/>
					<rect x="2388.012" y="1570.029" style="fill:#D8CFBF;" width="12.393" height="10.74"/>
				</g>
				<g>
					<rect x="2326.08" y="1592.515" style="fill:#D8CFBF;" width="12.393" height="10.74"/>
					<rect x="2346.723" y="1592.515" style="fill:#D8CFBF;" width="12.394" height="10.74"/>
					<rect x="2367.367" y="1592.515" style="fill:#D8CFBF;" width="12.394" height="10.74"/>
					<rect x="2388.012" y="1592.515" style="fill:#D8CFBF;" width="12.393" height="10.74"/>
				</g>
				<g>
					<rect x="2326.08" y="1615.001" style="fill:#D8CFBF;" width="12.393" height="10.74"/>
					<rect x="2346.723" y="1615.001" style="fill:#D8CFBF;" width="12.394" height="10.74"/>
					<rect x="2367.367" y="1615.001" style="fill:#D8CFBF;" width="12.394" height="10.74"/>
					<rect x="2388.012" y="1615.001" style="fill:#D8CFBF;" width="12.393" height="10.74"/>
				</g>
				<g>
					<rect x="2326.08" y="1637.487" style="fill:#D8CFBF;" width="12.393" height="10.74"/>
					<rect x="2346.723" y="1637.487" style="fill:#D8CFBF;" width="12.394" height="10.74"/>
					<rect x="2367.367" y="1637.487" style="fill:#D8CFBF;" width="12.394" height="10.74"/>
					<rect x="2388.012" y="1637.487" style="fill:#D8CFBF;" width="12.393" height="10.74"/>
				</g>
				<g>
					<rect x="2326.08" y="1659.974" style="fill:#D8CFBF;" width="12.393" height="10.74"/>
					<rect x="2346.723" y="1659.974" style="fill:#D8CFBF;" width="12.394" height="10.74"/>
					<rect x="2367.367" y="1659.974" style="fill:#D8CFBF;" width="12.394" height="10.74"/>
					<rect x="2388.012" y="1659.974" style="fill:#D8CFBF;" width="12.393" height="10.74"/>
				</g>
				<g>
					<rect x="2326.08" y="1682.46" style="fill:#D8CFBF;" width="12.393" height="10.739"/>
					<rect x="2346.723" y="1682.46" style="fill:#D8CFBF;" width="12.394" height="10.739"/>
					<rect x="2367.367" y="1682.46" style="fill:#D8CFBF;" width="12.394" height="10.739"/>
					<rect x="2388.012" y="1682.46" style="fill:#D8CFBF;" width="12.393" height="10.739"/>
				</g>
				<g>
					<rect x="2326.08" y="1704.945" style="fill:#D8CFBF;" width="12.393" height="10.74"/>
					<rect x="2346.723" y="1704.945" style="fill:#D8CFBF;" width="12.394" height="10.74"/>
					<rect x="2367.367" y="1704.945" style="fill:#D8CFBF;" width="12.394" height="10.74"/>
					<rect x="2388.012" y="1704.945" style="fill:#D8CFBF;" width="12.393" height="10.74"/>
				</g>
				<g>
					<rect x="2326.08" y="1727.432" style="fill:#D8CFBF;" width="12.393" height="10.74"/>
					<rect x="2346.723" y="1727.432" style="fill:#D8CFBF;" width="12.394" height="10.74"/>
					<rect x="2367.367" y="1727.432" style="fill:#D8CFBF;" width="12.394" height="10.74"/>
					<rect x="2388.012" y="1727.432" style="fill:#D8CFBF;" width="12.393" height="10.74"/>
				</g>
				<g>
					<rect x="2326.08" y="1749.918" style="fill:#D8CFBF;" width="12.393" height="10.74"/>
					<rect x="2346.723" y="1749.918" style="fill:#D8CFBF;" width="12.394" height="10.74"/>
					<rect x="2367.367" y="1749.918" style="fill:#D8CFBF;" width="12.394" height="10.74"/>
					<rect x="2388.012" y="1749.918" style="fill:#D8CFBF;" width="12.393" height="10.74"/>
				</g>
				<g>
					<rect x="2326.08" y="1772.404" style="fill:#D8CFBF;" width="12.393" height="10.74"/>
					<rect x="2346.723" y="1772.404" style="fill:#D8CFBF;" width="12.394" height="10.74"/>
					<rect x="2367.367" y="1772.404" style="fill:#D8CFBF;" width="12.394" height="10.74"/>
					<rect x="2388.012" y="1772.404" style="fill:#D8CFBF;" width="12.393" height="10.74"/>
				</g>
				<g>
					<rect x="2326.08" y="1794.891" style="fill:#D8CFBF;" width="12.393" height="10.74"/>
					<rect x="2346.723" y="1794.891" style="fill:#D8CFBF;" width="12.394" height="10.74"/>
					<rect x="2367.367" y="1794.891" style="fill:#D8CFBF;" width="12.394" height="10.74"/>
					<rect x="2388.012" y="1794.891" style="fill:#D8CFBF;" width="12.393" height="10.74"/>
				</g>
			</g>
			<g>
				<rect x="2406.865" y="1698.016" style="fill:#DAD0D1;" width="107.242" height="115.338"/>
				<rect x="2422.453" y="1647.291" style="fill:#DAD0D1;" width="76.066" height="50.725"/>
				<rect x="2427.832" y="1620.234" style="fill:#DAD0D1;" width="65.311" height="27.057"/>
				<rect x="2420.941" y="1613.475" style="fill:#DAD0D1;" width="79.09" height="6.76"/>
				<rect x="2432.633" y="1600.605" style="fill:#DAD0D1;" width="55.706" height="14.816"/>
				<g>
					<path style="fill:#C1B1B3;" d="M2448.721,1614.076c-0.354,0-0.641-0.268-0.641-0.601v-89.495c0-0.332,0.287-0.602,0.641-0.602
						s0.641,0.27,0.641,0.602v89.495C2449.361,1613.808,2449.074,1614.076,2448.721,1614.076z"/>
				</g>
				<rect x="2395.1" y="1698.016" style="fill:#C1B1B3;" width="107.242" height="115.338"/>
				<rect x="2410.688" y="1647.291" style="fill:#C1B1B3;" width="76.066" height="50.725"/>
				<rect x="2416.064" y="1620.234" style="fill:#C1B1B3;" width="65.313" height="27.057"/>
				<rect x="2409.176" y="1613.475" style="fill:#C1B1B3;" width="79.09" height="6.76"/>
				<rect x="2420.867" y="1600.605" style="fill:#C1B1B3;" width="55.707" height="14.816"/>
				<g>
					<g>
						<rect x="2422.602" y="1622.9" style="fill:#CDC3C0;" width="7.668" height="10.172"/>
						<rect x="2422.602" y="1636.236" style="fill:#CDC3C0;" width="7.668" height="10.171"/>
					</g>
					<g>
						<rect x="2433.727" y="1622.9" style="fill:#CDC3C0;" width="7.67" height="10.172"/>
						<rect x="2433.727" y="1636.236" style="fill:#CDC3C0;" width="7.67" height="10.171"/>
					</g>
					<g>
						<rect x="2444.852" y="1622.9" style="fill:#CDC3C0;" width="7.67" height="10.172"/>
						<rect x="2444.852" y="1636.236" style="fill:#CDC3C0;" width="7.67" height="10.171"/>
					</g>
					<g>
						<rect x="2455.977" y="1622.9" style="fill:#CDC3C0;" width="7.67" height="10.172"/>
						<rect x="2455.977" y="1636.236" style="fill:#CDC3C0;" width="7.67" height="10.171"/>
					</g>
					<g>
						<rect x="2467.102" y="1622.9" style="fill:#CDC3C0;" width="7.67" height="10.172"/>
						<rect x="2467.102" y="1636.236" style="fill:#CDC3C0;" width="7.67" height="10.171"/>
					</g>
				</g>
				<g>
					<g>
						<rect x="2423.275" y="1650.475" style="fill:#CDC3C0;" width="7.67" height="10.171"/>
						<rect x="2423.275" y="1663.811" style="fill:#CDC3C0;" width="7.67" height="10.17"/>
					</g>
					<g>
						<rect x="2434.4" y="1650.475" style="fill:#CDC3C0;" width="7.67" height="10.171"/>
						<rect x="2434.4" y="1663.811" style="fill:#CDC3C0;" width="7.67" height="10.17"/>
					</g>
					<g>
						<rect x="2445.527" y="1650.475" style="fill:#CDC3C0;" width="7.668" height="10.171"/>
						<rect x="2445.527" y="1663.811" style="fill:#CDC3C0;" width="7.668" height="10.17"/>
					</g>
					<g>
						<rect x="2456.652" y="1650.475" style="fill:#CDC3C0;" width="7.67" height="10.171"/>
						<rect x="2456.652" y="1663.811" style="fill:#CDC3C0;" width="7.67" height="10.17"/>
					</g>
					<g>
						<rect x="2467.777" y="1650.475" style="fill:#CDC3C0;" width="7.67" height="10.171"/>
						<rect x="2467.777" y="1663.811" style="fill:#CDC3C0;" width="7.67" height="10.17"/>
					</g>
				</g>
				<g>
					<g>
						<g>
							<rect x="2423.275" y="1676.845" style="fill:#CDC3C0;" width="7.67" height="10.171"/>
							<rect x="2423.275" y="1690.181" style="fill:#CDC3C0;" width="7.67" height="10.171"/>
						</g>
						<g>
							<rect x="2434.4" y="1676.845" style="fill:#CDC3C0;" width="7.67" height="10.171"/>
							<rect x="2434.4" y="1690.181" style="fill:#CDC3C0;" width="7.67" height="10.171"/>
						</g>
						<g>
							<rect x="2445.527" y="1676.845" style="fill:#CDC3C0;" width="7.668" height="10.171"/>
							<rect x="2445.527" y="1690.181" style="fill:#CDC3C0;" width="7.668" height="10.171"/>
						</g>
						<g>
							<rect x="2456.652" y="1676.845" style="fill:#CDC3C0;" width="7.67" height="10.171"/>
							<rect x="2456.652" y="1690.181" style="fill:#CDC3C0;" width="7.67" height="10.171"/>
						</g>
						<g>
							<rect x="2467.777" y="1676.845" style="fill:#CDC3C0;" width="7.67" height="10.171"/>
							<rect x="2467.777" y="1690.181" style="fill:#CDC3C0;" width="7.67" height="10.171"/>
						</g>
					</g>
					<g>
						<g>
							<rect x="2423.275" y="1705.098" style="fill:#CDC3C0;" width="7.67" height="10.172"/>
							<rect x="2423.275" y="1718.434" style="fill:#CDC3C0;" width="7.67" height="10.171"/>
						</g>
						<g>
							<rect x="2434.4" y="1705.098" style="fill:#CDC3C0;" width="7.67" height="10.172"/>
							<rect x="2434.4" y="1718.434" style="fill:#CDC3C0;" width="7.67" height="10.171"/>
						</g>
						<g>
							<rect x="2445.527" y="1705.098" style="fill:#CDC3C0;" width="7.668" height="10.172"/>
							<rect x="2445.527" y="1718.434" style="fill:#CDC3C0;" width="7.668" height="10.171"/>
						</g>
						<g>
							<rect x="2456.652" y="1705.098" style="fill:#CDC3C0;" width="7.67" height="10.172"/>
							<rect x="2456.652" y="1718.434" style="fill:#CDC3C0;" width="7.67" height="10.171"/>
						</g>
						<g>
							<rect x="2467.777" y="1705.098" style="fill:#CDC3C0;" width="7.67" height="10.172"/>
							<rect x="2467.777" y="1718.434" style="fill:#CDC3C0;" width="7.67" height="10.171"/>
						</g>
					</g>
					<g>
						<g>
							<rect x="2423.275" y="1733.351" style="fill:#CDC3C0;" width="7.67" height="10.171"/>
							<rect x="2423.275" y="1746.687" style="fill:#CDC3C0;" width="7.67" height="10.171"/>
						</g>
						<g>
							<rect x="2434.4" y="1733.351" style="fill:#CDC3C0;" width="7.67" height="10.171"/>
							<rect x="2434.4" y="1746.687" style="fill:#CDC3C0;" width="7.67" height="10.171"/>
						</g>
						<g>
							<rect x="2445.527" y="1733.351" style="fill:#CDC3C0;" width="7.668" height="10.171"/>
							<rect x="2445.527" y="1746.687" style="fill:#CDC3C0;" width="7.668" height="10.171"/>
						</g>
						<g>
							<rect x="2456.652" y="1733.351" style="fill:#CDC3C0;" width="7.67" height="10.171"/>
							<rect x="2456.652" y="1746.687" style="fill:#CDC3C0;" width="7.67" height="10.171"/>
						</g>
						<g>
							<rect x="2467.777" y="1733.351" style="fill:#CDC3C0;" width="7.67" height="10.171"/>
							<rect x="2467.777" y="1746.687" style="fill:#CDC3C0;" width="7.67" height="10.171"/>
						</g>
					</g>
					<g>
						<g>
							<rect x="2423.275" y="1761.604" style="fill:#CDC3C0;" width="7.67" height="10.172"/>
							<rect x="2423.275" y="1774.939" style="fill:#CDC3C0;" width="7.67" height="10.172"/>
						</g>
						<g>
							<rect x="2434.4" y="1761.604" style="fill:#CDC3C0;" width="7.67" height="10.172"/>
							<rect x="2434.4" y="1774.939" style="fill:#CDC3C0;" width="7.67" height="10.172"/>
						</g>
						<g>
							<rect x="2445.527" y="1761.604" style="fill:#CDC3C0;" width="7.668" height="10.172"/>
							<rect x="2445.527" y="1774.939" style="fill:#CDC3C0;" width="7.668" height="10.172"/>
						</g>
						<g>
							<rect x="2456.652" y="1761.604" style="fill:#CDC3C0;" width="7.67" height="10.172"/>
							<rect x="2456.652" y="1774.939" style="fill:#CDC3C0;" width="7.67" height="10.172"/>
						</g>
						<g>
							<rect x="2467.777" y="1761.604" style="fill:#CDC3C0;" width="7.67" height="10.172"/>
							<rect x="2467.777" y="1774.939" style="fill:#CDC3C0;" width="7.67" height="10.172"/>
						</g>
					</g>
					<g>
						<g>
							<rect x="2423.275" y="1789.857" style="fill:#CDC3C0;" width="7.67" height="10.171"/>
							<rect x="2423.275" y="1803.192" style="fill:#CDC3C0;" width="7.67" height="10.171"/>
						</g>
						<g>
							<rect x="2434.4" y="1789.857" style="fill:#CDC3C0;" width="7.67" height="10.171"/>
							<rect x="2434.4" y="1803.192" style="fill:#CDC3C0;" width="7.67" height="10.171"/>
						</g>
						<g>
							<rect x="2445.527" y="1789.857" style="fill:#CDC3C0;" width="7.668" height="10.171"/>
							<rect x="2445.527" y="1803.192" style="fill:#CDC3C0;" width="7.668" height="10.171"/>
						</g>
						<g>
							<rect x="2456.652" y="1789.857" style="fill:#CDC3C0;" width="7.67" height="10.171"/>
							<rect x="2456.652" y="1803.192" style="fill:#CDC3C0;" width="7.67" height="10.171"/>
						</g>
						<g>
							<rect x="2467.777" y="1789.857" style="fill:#CDC3C0;" width="7.67" height="10.171"/>
							<rect x="2467.777" y="1803.192" style="fill:#CDC3C0;" width="7.67" height="10.171"/>
						</g>
					</g>
				</g>
			</g>
		</g>
		<g>
			<g>
				
					<rect x="400.152" y="1266.664" transform="matrix(-1 -1.224647e-16 1.224647e-16 -1 804.6163 2652.375)" style="fill:#CDC3C0;" width="4.313" height="119.047"/>
				
					<rect x="358.106" y="1343.94" transform="matrix(-1 -1.224647e-16 1.224647e-16 -1 804.6163 2771.4219)" style="fill:#C1B1B3;" width="88.404" height="83.541"/>
				<g>
					
						<rect x="332.958" y="1374.656" transform="matrix(-1 -1.224647e-16 1.224647e-16 -1 797.4453 3207.4004)" style="fill:#C1B1B3;" width="131.528" height="458.088"/>
					<g>
						<g>
							<rect x="435.353" y="1384.229" style="fill:#CDC3C0;" width="17.25" height="16.708"/>
							<rect x="406.621" y="1384.229" style="fill:#CDC3C0;" width="17.25" height="16.708"/>
							<rect x="377.888" y="1384.229" style="fill:#CDC3C0;" width="17.25" height="16.708"/>
							<rect x="349.155" y="1384.229" style="fill:#CDC3C0;" width="17.25" height="16.708"/>
						</g>
						<g>
							<rect x="435.353" y="1419.21" style="fill:#CDC3C0;" width="17.25" height="16.709"/>
							<rect x="406.621" y="1419.21" style="fill:#CDC3C0;" width="17.25" height="16.709"/>
							<rect x="377.888" y="1419.21" style="fill:#CDC3C0;" width="17.25" height="16.709"/>
							<rect x="349.155" y="1419.21" style="fill:#CDC3C0;" width="17.25" height="16.709"/>
						</g>
						<g>
							<rect x="435.353" y="1454.192" style="fill:#CDC3C0;" width="17.25" height="16.708"/>
							<rect x="406.621" y="1454.192" style="fill:#CDC3C0;" width="17.25" height="16.708"/>
							<rect x="377.888" y="1454.192" style="fill:#CDC3C0;" width="17.25" height="16.708"/>
							<rect x="349.155" y="1454.192" style="fill:#CDC3C0;" width="17.25" height="16.708"/>
						</g>
						<g>
							<rect x="435.353" y="1489.173" style="fill:#CDC3C0;" width="17.25" height="16.709"/>
							<rect x="406.621" y="1489.173" style="fill:#CDC3C0;" width="17.25" height="16.709"/>
							<rect x="377.888" y="1489.173" style="fill:#CDC3C0;" width="17.25" height="16.709"/>
							<rect x="349.155" y="1489.173" style="fill:#CDC3C0;" width="17.25" height="16.709"/>
						</g>
						<g>
							<rect x="435.353" y="1524.154" style="fill:#CDC3C0;" width="17.25" height="16.708"/>
							<rect x="406.621" y="1524.154" style="fill:#CDC3C0;" width="17.25" height="16.708"/>
							<rect x="377.888" y="1524.154" style="fill:#CDC3C0;" width="17.25" height="16.708"/>
							<rect x="349.155" y="1524.154" style="fill:#CDC3C0;" width="17.25" height="16.708"/>
						</g>
						<g>
							<rect x="435.353" y="1559.137" style="fill:#CDC3C0;" width="17.25" height="16.708"/>
							<rect x="406.621" y="1559.137" style="fill:#CDC3C0;" width="17.25" height="16.708"/>
							<rect x="377.888" y="1559.137" style="fill:#CDC3C0;" width="17.25" height="16.708"/>
							<rect x="349.155" y="1559.137" style="fill:#CDC3C0;" width="17.25" height="16.708"/>
						</g>
						<g>
							<rect x="435.353" y="1594.117" style="fill:#CDC3C0;" width="17.25" height="16.709"/>
							<rect x="406.621" y="1594.117" style="fill:#CDC3C0;" width="17.25" height="16.709"/>
							<rect x="377.888" y="1594.117" style="fill:#CDC3C0;" width="17.25" height="16.709"/>
							<rect x="349.155" y="1594.117" style="fill:#CDC3C0;" width="17.25" height="16.709"/>
						</g>
						<g>
							<rect x="435.353" y="1629.1" style="fill:#CDC3C0;" width="17.25" height="16.708"/>
							<rect x="406.621" y="1629.1" style="fill:#CDC3C0;" width="17.25" height="16.708"/>
							<rect x="377.888" y="1629.1" style="fill:#CDC3C0;" width="17.25" height="16.708"/>
							<rect x="349.155" y="1629.1" style="fill:#CDC3C0;" width="17.25" height="16.708"/>
						</g>
						<g>
							<rect x="435.353" y="1664.08" style="fill:#CDC3C0;" width="17.25" height="16.709"/>
							<rect x="406.621" y="1664.08" style="fill:#CDC3C0;" width="17.25" height="16.709"/>
							<rect x="377.888" y="1664.08" style="fill:#CDC3C0;" width="17.25" height="16.709"/>
							<rect x="349.155" y="1664.08" style="fill:#CDC3C0;" width="17.25" height="16.709"/>
						</g>
						<g>
							<rect x="435.353" y="1699.062" style="fill:#CDC3C0;" width="17.25" height="16.708"/>
							<rect x="406.621" y="1699.062" style="fill:#CDC3C0;" width="17.25" height="16.708"/>
							<rect x="377.888" y="1699.062" style="fill:#CDC3C0;" width="17.25" height="16.708"/>
							<rect x="349.155" y="1699.062" style="fill:#CDC3C0;" width="17.25" height="16.708"/>
						</g>
						<g>
							<rect x="435.353" y="1734.043" style="fill:#CDC3C0;" width="17.25" height="16.709"/>
							<rect x="406.621" y="1734.043" style="fill:#CDC3C0;" width="17.25" height="16.709"/>
							<rect x="377.888" y="1734.043" style="fill:#CDC3C0;" width="17.25" height="16.709"/>
							<rect x="349.155" y="1734.043" style="fill:#CDC3C0;" width="17.25" height="16.709"/>
						</g>
						<g>
							<rect x="435.353" y="1769.025" style="fill:#CDC3C0;" width="17.25" height="16.709"/>
							<rect x="406.621" y="1769.025" style="fill:#CDC3C0;" width="17.25" height="16.709"/>
							<rect x="377.888" y="1769.025" style="fill:#CDC3C0;" width="17.25" height="16.709"/>
							<rect x="349.155" y="1769.025" style="fill:#CDC3C0;" width="17.25" height="16.709"/>
						</g>
						<g>
							<rect x="435.353" y="1804.006" style="fill:#CDC3C0;" width="17.25" height="16.709"/>
							<rect x="406.621" y="1804.006" style="fill:#CDC3C0;" width="17.25" height="16.709"/>
							<rect x="377.888" y="1804.006" style="fill:#CDC3C0;" width="17.25" height="16.709"/>
							<rect x="349.155" y="1804.006" style="fill:#CDC3C0;" width="17.25" height="16.709"/>
						</g>
					</g>
				</g>
			</g>
			<g>
				<path style="fill:#977D80;" d="M342.706,1832.744h-115.05v-215.693c0-53.681,43.517-97.198,97.198-97.198h17.852V1832.744z"/>
				<g>
					<g>
						<rect x="312.861" y="1570.137" style="fill:#CDC3C0;" width="16.623" height="28.018"/>
						<rect x="291.005" y="1570.137" style="fill:#CDC3C0;" width="16.624" height="28.018"/>
						<rect x="269.149" y="1570.137" style="fill:#CDC3C0;" width="16.623" height="28.018"/>
						<rect x="247.294" y="1570.137" style="fill:#CDC3C0;" width="16.623" height="28.018"/>
					</g>
					<g>
						<rect x="312.861" y="1605.21" style="fill:#CDC3C0;" width="16.623" height="28.019"/>
						<rect x="291.005" y="1605.21" style="fill:#CDC3C0;" width="16.624" height="28.019"/>
						<rect x="269.149" y="1605.21" style="fill:#CDC3C0;" width="16.623" height="28.019"/>
						<rect x="247.294" y="1605.21" style="fill:#CDC3C0;" width="16.623" height="28.019"/>
					</g>
					<g>
						<rect x="312.861" y="1640.283" style="fill:#CDC3C0;" width="16.623" height="28.018"/>
						<rect x="291.005" y="1640.283" style="fill:#CDC3C0;" width="16.624" height="28.018"/>
						<rect x="269.149" y="1640.283" style="fill:#CDC3C0;" width="16.623" height="28.018"/>
						<rect x="247.294" y="1640.283" style="fill:#CDC3C0;" width="16.623" height="28.018"/>
					</g>
					<g>
						<rect x="312.861" y="1675.355" style="fill:#CDC3C0;" width="16.623" height="28.019"/>
						<rect x="291.005" y="1675.355" style="fill:#CDC3C0;" width="16.624" height="28.019"/>
						<rect x="269.149" y="1675.355" style="fill:#CDC3C0;" width="16.623" height="28.019"/>
						<rect x="247.294" y="1675.355" style="fill:#CDC3C0;" width="16.623" height="28.019"/>
					</g>
					<g>
						<rect x="312.861" y="1710.429" style="fill:#CDC3C0;" width="16.623" height="28.018"/>
						<rect x="291.005" y="1710.429" style="fill:#CDC3C0;" width="16.624" height="28.018"/>
						<rect x="269.149" y="1710.429" style="fill:#CDC3C0;" width="16.623" height="28.018"/>
						<rect x="247.294" y="1710.429" style="fill:#CDC3C0;" width="16.623" height="28.018"/>
					</g>
					<g>
						<rect x="312.861" y="1745.502" style="fill:#CDC3C0;" width="16.623" height="28.018"/>
						<rect x="291.005" y="1745.502" style="fill:#CDC3C0;" width="16.624" height="28.018"/>
						<rect x="269.149" y="1745.502" style="fill:#CDC3C0;" width="16.623" height="28.018"/>
						<rect x="247.294" y="1745.502" style="fill:#CDC3C0;" width="16.623" height="28.018"/>
					</g>
					<g>
						<rect x="312.861" y="1780.574" style="fill:#CDC3C0;" width="16.623" height="28.018"/>
						<rect x="291.005" y="1780.574" style="fill:#CDC3C0;" width="16.624" height="28.018"/>
						<rect x="269.149" y="1780.574" style="fill:#CDC3C0;" width="16.623" height="28.018"/>
						<rect x="247.294" y="1780.574" style="fill:#CDC3C0;" width="16.623" height="28.018"/>
					</g>
				</g>
			</g>
			<g>
				<path style="fill:#C1B1B3;" d="M798.91,1237.47h113.735v-65.844c0-31.407-25.46-56.867-56.868-56.867l0,0
					c-31.407,0-56.868,25.46-56.868,56.867V1237.47z"/>
				<g>
					
						<rect x="766.557" y="1159.876" transform="matrix(-1 -1.224647e-16 1.224647e-16 -1 1702.3301 2992.6201)" style="fill:#C1B1B3;" width="169.216" height="672.868"/>
					<g>
						<g>
							<rect x="898.292" y="1173.937" style="fill:#CDC3C0;" width="22.192" height="24.543"/>
							<rect x="861.326" y="1173.937" style="fill:#CDC3C0;" width="22.192" height="24.543"/>
							<rect x="824.36" y="1173.937" style="fill:#CDC3C0;" width="22.192" height="24.543"/>
							<rect x="787.394" y="1173.937" style="fill:#CDC3C0;" width="22.192" height="24.543"/>
						</g>
						<g>
							<rect x="898.292" y="1225.319" style="fill:#CDC3C0;" width="22.192" height="24.543"/>
							<rect x="861.326" y="1225.319" style="fill:#CDC3C0;" width="22.192" height="24.543"/>
							<rect x="824.36" y="1225.319" style="fill:#CDC3C0;" width="22.192" height="24.543"/>
							<rect x="787.394" y="1225.319" style="fill:#CDC3C0;" width="22.192" height="24.543"/>
						</g>
						<g>
							<rect x="898.292" y="1276.702" style="fill:#CDC3C0;" width="22.192" height="24.543"/>
							<rect x="861.326" y="1276.702" style="fill:#CDC3C0;" width="22.192" height="24.543"/>
							<rect x="824.36" y="1276.702" style="fill:#CDC3C0;" width="22.192" height="24.543"/>
							<rect x="787.394" y="1276.702" style="fill:#CDC3C0;" width="22.192" height="24.543"/>
						</g>
						<g>
							<rect x="898.292" y="1328.086" style="fill:#CDC3C0;" width="22.192" height="24.542"/>
							<rect x="861.326" y="1328.086" style="fill:#CDC3C0;" width="22.192" height="24.542"/>
							<rect x="824.36" y="1328.086" style="fill:#CDC3C0;" width="22.192" height="24.542"/>
							<rect x="787.394" y="1328.086" style="fill:#CDC3C0;" width="22.192" height="24.542"/>
						</g>
						<g>
							<rect x="898.292" y="1379.469" style="fill:#CDC3C0;" width="22.192" height="24.542"/>
							<rect x="861.326" y="1379.469" style="fill:#CDC3C0;" width="22.192" height="24.542"/>
							<rect x="824.36" y="1379.469" style="fill:#CDC3C0;" width="22.192" height="24.542"/>
							<rect x="787.394" y="1379.469" style="fill:#CDC3C0;" width="22.192" height="24.542"/>
						</g>
						<g>
							<rect x="898.292" y="1430.852" style="fill:#CDC3C0;" width="22.192" height="24.542"/>
							<rect x="861.326" y="1430.852" style="fill:#CDC3C0;" width="22.192" height="24.542"/>
							<rect x="824.36" y="1430.852" style="fill:#CDC3C0;" width="22.192" height="24.542"/>
							<rect x="787.394" y="1430.852" style="fill:#CDC3C0;" width="22.192" height="24.542"/>
						</g>
						<g>
							<rect x="898.292" y="1482.234" style="fill:#CDC3C0;" width="22.192" height="24.542"/>
							<rect x="861.326" y="1482.234" style="fill:#CDC3C0;" width="22.192" height="24.542"/>
							<rect x="824.36" y="1482.234" style="fill:#CDC3C0;" width="22.192" height="24.542"/>
							<rect x="787.394" y="1482.234" style="fill:#CDC3C0;" width="22.192" height="24.542"/>
						</g>
						<g>
							<rect x="898.292" y="1533.617" style="fill:#CDC3C0;" width="22.192" height="24.543"/>
							<rect x="861.326" y="1533.617" style="fill:#CDC3C0;" width="22.192" height="24.543"/>
							<rect x="824.36" y="1533.617" style="fill:#CDC3C0;" width="22.192" height="24.543"/>
							<rect x="787.394" y="1533.617" style="fill:#CDC3C0;" width="22.192" height="24.543"/>
						</g>
						<g>
							<rect x="898.292" y="1585" style="fill:#CDC3C0;" width="22.192" height="24.543"/>
							<rect x="861.326" y="1585" style="fill:#CDC3C0;" width="22.192" height="24.543"/>
							<rect x="824.36" y="1585" style="fill:#CDC3C0;" width="22.192" height="24.543"/>
							<rect x="787.394" y="1585" style="fill:#CDC3C0;" width="22.192" height="24.543"/>
						</g>
						<g>
							<rect x="898.292" y="1636.383" style="fill:#CDC3C0;" width="22.192" height="24.543"/>
							<rect x="861.326" y="1636.383" style="fill:#CDC3C0;" width="22.192" height="24.543"/>
							<rect x="824.36" y="1636.383" style="fill:#CDC3C0;" width="22.192" height="24.543"/>
							<rect x="787.394" y="1636.383" style="fill:#CDC3C0;" width="22.192" height="24.543"/>
						</g>
						<g>
							<rect x="898.292" y="1687.766" style="fill:#CDC3C0;" width="22.192" height="24.543"/>
							<rect x="861.326" y="1687.766" style="fill:#CDC3C0;" width="22.192" height="24.543"/>
							<rect x="824.36" y="1687.766" style="fill:#CDC3C0;" width="22.192" height="24.543"/>
							<rect x="787.394" y="1687.766" style="fill:#CDC3C0;" width="22.192" height="24.543"/>
						</g>
						<g>
							<rect x="898.292" y="1739.148" style="fill:#CDC3C0;" width="22.192" height="24.543"/>
							<rect x="861.326" y="1739.148" style="fill:#CDC3C0;" width="22.192" height="24.543"/>
							<rect x="824.36" y="1739.148" style="fill:#CDC3C0;" width="22.192" height="24.543"/>
							<rect x="787.394" y="1739.148" style="fill:#CDC3C0;" width="22.192" height="24.543"/>
						</g>
						<g>
							<rect x="898.292" y="1790.531" style="fill:#CDC3C0;" width="22.192" height="24.543"/>
							<rect x="861.326" y="1790.531" style="fill:#CDC3C0;" width="22.192" height="24.543"/>
							<rect x="824.36" y="1790.531" style="fill:#CDC3C0;" width="22.192" height="24.543"/>
							<rect x="787.394" y="1790.531" style="fill:#CDC3C0;" width="22.192" height="24.543"/>
						</g>
					</g>
				</g>
			</g>
			<g>
				<path style="fill:#C1B1B3;" d="M779.097,1832.744H631.081v-354.766c0-57.29,46.443-103.733,103.733-103.733h44.282V1832.744z"/>
				<g>
					<g>
						<rect x="740.701" y="1447.93" style="fill:#CDC3C0;" width="21.386" height="41.057"/>
						<rect x="712.583" y="1447.93" style="fill:#CDC3C0;" width="21.386" height="41.057"/>
						<rect x="684.464" y="1447.93" style="fill:#CDC3C0;" width="21.386" height="41.057"/>
						<rect x="656.346" y="1447.93" style="fill:#CDC3C0;" width="21.386" height="41.057"/>
					</g>
					<g>
						<rect x="740.701" y="1499.324" style="fill:#CDC3C0;" width="21.386" height="41.057"/>
						<rect x="712.583" y="1499.324" style="fill:#CDC3C0;" width="21.386" height="41.057"/>
						<rect x="684.464" y="1499.324" style="fill:#CDC3C0;" width="21.386" height="41.057"/>
						<rect x="656.346" y="1499.324" style="fill:#CDC3C0;" width="21.386" height="41.057"/>
					</g>
					<g>
						<rect x="740.701" y="1550.719" style="fill:#CDC3C0;" width="21.386" height="41.057"/>
						<rect x="712.583" y="1550.719" style="fill:#CDC3C0;" width="21.386" height="41.057"/>
						<rect x="684.464" y="1550.719" style="fill:#CDC3C0;" width="21.386" height="41.057"/>
						<rect x="656.346" y="1550.719" style="fill:#CDC3C0;" width="21.386" height="41.057"/>
					</g>
					<g>
						<rect x="740.701" y="1602.113" style="fill:#CDC3C0;" width="21.386" height="41.057"/>
						<rect x="712.583" y="1602.113" style="fill:#CDC3C0;" width="21.386" height="41.057"/>
						<rect x="684.464" y="1602.113" style="fill:#CDC3C0;" width="21.386" height="41.057"/>
						<rect x="656.346" y="1602.113" style="fill:#CDC3C0;" width="21.386" height="41.057"/>
					</g>
					<g>
						<rect x="740.701" y="1653.508" style="fill:#CDC3C0;" width="21.386" height="41.057"/>
						<rect x="712.583" y="1653.508" style="fill:#CDC3C0;" width="21.386" height="41.057"/>
						<rect x="684.464" y="1653.508" style="fill:#CDC3C0;" width="21.386" height="41.057"/>
						<rect x="656.346" y="1653.508" style="fill:#CDC3C0;" width="21.386" height="41.057"/>
					</g>
					<g>
						<rect x="740.701" y="1704.902" style="fill:#CDC3C0;" width="21.386" height="41.057"/>
						<rect x="712.583" y="1704.902" style="fill:#CDC3C0;" width="21.386" height="41.057"/>
						<rect x="684.464" y="1704.902" style="fill:#CDC3C0;" width="21.386" height="41.057"/>
						<rect x="656.346" y="1704.902" style="fill:#CDC3C0;" width="21.386" height="41.057"/>
					</g>
					<g>
						<rect x="740.701" y="1756.297" style="fill:#CDC3C0;" width="21.386" height="41.057"/>
						<rect x="712.583" y="1756.297" style="fill:#CDC3C0;" width="21.386" height="41.057"/>
						<rect x="684.464" y="1756.297" style="fill:#CDC3C0;" width="21.386" height="41.057"/>
						<rect x="656.346" y="1756.297" style="fill:#CDC3C0;" width="21.386" height="41.057"/>
					</g>
				</g>
			</g>
			<g>
				
					<rect x="1249.901" y="1431.868" transform="matrix(-1 -1.224647e-16 1.224647e-16 -1 2503.043 2948.0449)" style="fill:#CDC3C0;" width="3.241" height="84.309"/>
				<path style="fill:#C1B1B3;" d="M1218.301,1545.758h66.44v-36.733c0-12.388-14.873-22.43-33.22-22.43l0,0
					c-18.347,0-33.22,10.042-33.22,22.43V1545.758z"/>
				<g>
					
						<rect x="1199.402" y="1508.348" transform="matrix(-1 -1.224647e-16 1.224647e-16 -1 2497.6533 3341.1074)" style="fill:#C1B1B3;" width="98.85" height="324.412"/>
					<g>
						<g>
							<rect x="1276.356" y="1515.127" style="fill:#977D80;" width="12.964" height="11.833"/>
							<rect x="1254.762" y="1515.127" style="fill:#977D80;" width="12.964" height="11.833"/>
							<rect x="1233.168" y="1515.127" style="fill:#977D80;" width="12.963" height="11.833"/>
							<rect x="1211.575" y="1515.127" style="fill:#977D80;" width="12.964" height="11.833"/>
						</g>
						<g>
							<rect x="1276.356" y="1539.9" style="fill:#977D80;" width="12.964" height="11.833"/>
							<rect x="1254.762" y="1539.9" style="fill:#977D80;" width="12.964" height="11.833"/>
							<rect x="1233.168" y="1539.9" style="fill:#977D80;" width="12.963" height="11.833"/>
							<rect x="1211.575" y="1539.9" style="fill:#977D80;" width="12.964" height="11.833"/>
						</g>
						<g>
							<rect x="1276.356" y="1564.674" style="fill:#977D80;" width="12.964" height="11.832"/>
							<rect x="1254.762" y="1564.674" style="fill:#977D80;" width="12.964" height="11.832"/>
							<rect x="1233.168" y="1564.674" style="fill:#977D80;" width="12.963" height="11.832"/>
							<rect x="1211.575" y="1564.674" style="fill:#977D80;" width="12.964" height="11.832"/>
						</g>
						<g>
							<rect x="1276.356" y="1589.447" style="fill:#977D80;" width="12.964" height="11.832"/>
							<rect x="1254.762" y="1589.447" style="fill:#977D80;" width="12.964" height="11.832"/>
							<rect x="1233.168" y="1589.447" style="fill:#977D80;" width="12.963" height="11.832"/>
							<rect x="1211.575" y="1589.447" style="fill:#977D80;" width="12.964" height="11.832"/>
						</g>
						<g>
							<rect x="1276.356" y="1614.221" style="fill:#977D80;" width="12.964" height="11.832"/>
							<rect x="1254.762" y="1614.221" style="fill:#977D80;" width="12.964" height="11.832"/>
							<rect x="1233.168" y="1614.221" style="fill:#977D80;" width="12.963" height="11.832"/>
							<rect x="1211.575" y="1614.221" style="fill:#977D80;" width="12.964" height="11.832"/>
						</g>
						<g>
							<rect x="1276.356" y="1638.994" style="fill:#977D80;" width="12.964" height="11.832"/>
							<rect x="1254.762" y="1638.994" style="fill:#977D80;" width="12.964" height="11.832"/>
							<rect x="1233.168" y="1638.994" style="fill:#977D80;" width="12.963" height="11.832"/>
							<rect x="1211.575" y="1638.994" style="fill:#977D80;" width="12.964" height="11.832"/>
						</g>
						<g>
							<rect x="1276.356" y="1663.768" style="fill:#977D80;" width="12.964" height="11.832"/>
							<rect x="1254.762" y="1663.768" style="fill:#977D80;" width="12.964" height="11.832"/>
							<rect x="1233.168" y="1663.768" style="fill:#977D80;" width="12.963" height="11.832"/>
							<rect x="1211.575" y="1663.768" style="fill:#977D80;" width="12.964" height="11.832"/>
						</g>
						<g>
							<rect x="1276.356" y="1688.541" style="fill:#977D80;" width="12.964" height="11.832"/>
							<rect x="1254.762" y="1688.541" style="fill:#977D80;" width="12.964" height="11.832"/>
							<rect x="1233.168" y="1688.541" style="fill:#977D80;" width="12.963" height="11.832"/>
							<rect x="1211.575" y="1688.541" style="fill:#977D80;" width="12.964" height="11.832"/>
						</g>
						<g>
							<rect x="1276.356" y="1713.314" style="fill:#977D80;" width="12.964" height="11.832"/>
							<rect x="1254.762" y="1713.314" style="fill:#977D80;" width="12.964" height="11.832"/>
							<rect x="1233.168" y="1713.314" style="fill:#977D80;" width="12.963" height="11.832"/>
							<rect x="1211.575" y="1713.314" style="fill:#977D80;" width="12.964" height="11.832"/>
						</g>
						<g>
							<rect x="1276.356" y="1738.088" style="fill:#977D80;" width="12.964" height="11.832"/>
							<rect x="1254.762" y="1738.088" style="fill:#977D80;" width="12.964" height="11.832"/>
							<rect x="1233.168" y="1738.088" style="fill:#977D80;" width="12.963" height="11.832"/>
							<rect x="1211.575" y="1738.088" style="fill:#977D80;" width="12.964" height="11.832"/>
						</g>
						<g>
							<rect x="1276.356" y="1762.861" style="fill:#977D80;" width="12.964" height="11.832"/>
							<rect x="1254.762" y="1762.861" style="fill:#977D80;" width="12.964" height="11.832"/>
							<rect x="1233.168" y="1762.861" style="fill:#977D80;" width="12.963" height="11.832"/>
							<rect x="1211.575" y="1762.861" style="fill:#977D80;" width="12.964" height="11.832"/>
						</g>
						<g>
							<rect x="1276.356" y="1787.635" style="fill:#977D80;" width="12.964" height="11.832"/>
							<rect x="1254.762" y="1787.635" style="fill:#977D80;" width="12.964" height="11.832"/>
							<rect x="1233.168" y="1787.635" style="fill:#977D80;" width="12.963" height="11.832"/>
							<rect x="1211.575" y="1787.635" style="fill:#977D80;" width="12.964" height="11.832"/>
						</g>
						<g>
							<rect x="1276.356" y="1812.408" style="fill:#977D80;" width="12.964" height="11.832"/>
							<rect x="1254.762" y="1812.408" style="fill:#977D80;" width="12.964" height="11.832"/>
							<rect x="1233.168" y="1812.408" style="fill:#977D80;" width="12.963" height="11.832"/>
							<rect x="1211.575" y="1812.408" style="fill:#977D80;" width="12.964" height="11.832"/>
						</g>
					</g>
				</g>
			</g>
			<g>
				<path style="fill:#C1B1B3;" d="M1175.41,1832.553h-86.465v-346.31c0-46.998,38.099-85.097,85.098-85.097h1.367V1832.553z"/>
				<g>
					<g>
						<rect x="1152.981" y="1470.477" style="fill:#977D80;" width="12.493" height="38.631"/>
						<rect x="1136.555" y="1470.477" style="fill:#977D80;" width="12.493" height="38.631"/>
						<rect x="1120.129" y="1470.477" style="fill:#977D80;" width="12.493" height="38.631"/>
						<rect x="1103.704" y="1470.477" style="fill:#977D80;" width="12.493" height="38.631"/>
					</g>
					<g>
						<rect x="1152.981" y="1518.834" style="fill:#977D80;" width="12.493" height="38.631"/>
						<rect x="1136.555" y="1518.834" style="fill:#977D80;" width="12.493" height="38.631"/>
						<rect x="1120.129" y="1518.834" style="fill:#977D80;" width="12.493" height="38.631"/>
						<rect x="1103.704" y="1518.834" style="fill:#977D80;" width="12.493" height="38.631"/>
					</g>
					<g>
						<rect x="1152.981" y="1567.192" style="fill:#977D80;" width="12.493" height="38.631"/>
						<rect x="1136.555" y="1567.192" style="fill:#977D80;" width="12.493" height="38.631"/>
						<rect x="1120.129" y="1567.192" style="fill:#977D80;" width="12.493" height="38.631"/>
						<rect x="1103.704" y="1567.192" style="fill:#977D80;" width="12.493" height="38.631"/>
					</g>
					<g>
						<rect x="1152.981" y="1615.55" style="fill:#977D80;" width="12.493" height="38.631"/>
						<rect x="1136.555" y="1615.55" style="fill:#977D80;" width="12.493" height="38.631"/>
						<rect x="1120.129" y="1615.55" style="fill:#977D80;" width="12.493" height="38.631"/>
						<rect x="1103.704" y="1615.55" style="fill:#977D80;" width="12.493" height="38.631"/>
					</g>
					<g>
						<rect x="1152.981" y="1663.908" style="fill:#977D80;" width="12.493" height="38.63"/>
						<rect x="1136.555" y="1663.908" style="fill:#977D80;" width="12.493" height="38.63"/>
						<rect x="1120.129" y="1663.908" style="fill:#977D80;" width="12.493" height="38.63"/>
						<rect x="1103.704" y="1663.908" style="fill:#977D80;" width="12.493" height="38.63"/>
					</g>
					<g>
						<rect x="1152.981" y="1712.266" style="fill:#977D80;" width="12.493" height="38.631"/>
						<rect x="1136.555" y="1712.266" style="fill:#977D80;" width="12.493" height="38.631"/>
						<rect x="1120.129" y="1712.266" style="fill:#977D80;" width="12.493" height="38.631"/>
						<rect x="1103.704" y="1712.266" style="fill:#977D80;" width="12.493" height="38.631"/>
					</g>
					<g>
						<rect x="1152.981" y="1760.623" style="fill:#977D80;" width="12.493" height="38.631"/>
						<rect x="1136.555" y="1760.623" style="fill:#977D80;" width="12.493" height="38.631"/>
						<rect x="1120.129" y="1760.623" style="fill:#977D80;" width="12.493" height="38.631"/>
						<rect x="1103.704" y="1760.623" style="fill:#977D80;" width="12.493" height="38.631"/>
					</g>
				</g>
			</g>
			<g>
				<rect x="912.758" y="1560.865" style="fill:#977D80;" width="180.826" height="271.855"/>
				<rect x="939.042" y="1441.308" style="fill:#977D80;" width="128.26" height="119.558"/>
				<rect x="948.109" y="1377.534" style="fill:#977D80;" width="110.125" height="63.773"/>
				<rect x="936.492" y="1361.603" style="fill:#977D80;" width="133.359" height="15.932"/>
				<rect x="956.206" y="1331.268" style="fill:#977D80;" width="93.93" height="34.923"/>
				<g>
					<g>
						<rect x="959.128" y="1383.818" style="fill:#C1B19A;" width="12.932" height="23.974"/>
						<rect x="959.128" y="1415.251" style="fill:#C1B19A;" width="12.932" height="23.974"/>
					</g>
					<g>
						<rect x="977.887" y="1383.818" style="fill:#C1B19A;" width="12.932" height="23.974"/>
						<rect x="977.887" y="1415.251" style="fill:#C1B19A;" width="12.932" height="23.974"/>
					</g>
					<g>
						<rect x="996.646" y="1383.818" style="fill:#C1B19A;" width="12.932" height="23.974"/>
						<rect x="996.646" y="1415.251" style="fill:#C1B19A;" width="12.932" height="23.974"/>
					</g>
					<g>
						<rect x="1015.405" y="1383.818" style="fill:#C1B19A;" width="12.932" height="23.974"/>
						<rect x="1015.405" y="1415.251" style="fill:#C1B19A;" width="12.932" height="23.974"/>
					</g>
					<g>
						<rect x="1034.165" y="1383.818" style="fill:#C1B19A;" width="12.932" height="23.974"/>
						<rect x="1034.165" y="1415.251" style="fill:#C1B19A;" width="12.932" height="23.974"/>
					</g>
				</g>
				<g>
					<g>
						<rect x="960.267" y="1448.811" style="fill:#C1B19A;" width="12.932" height="23.974"/>
						<rect x="960.267" y="1480.243" style="fill:#C1B19A;" width="12.932" height="23.973"/>
					</g>
					<g>
						<rect x="979.026" y="1448.811" style="fill:#C1B19A;" width="12.932" height="23.974"/>
						<rect x="979.026" y="1480.243" style="fill:#C1B19A;" width="12.932" height="23.973"/>
					</g>
					<g>
						<rect x="997.785" y="1448.811" style="fill:#C1B19A;" width="12.932" height="23.974"/>
						<rect x="997.785" y="1480.243" style="fill:#C1B19A;" width="12.932" height="23.973"/>
					</g>
					<g>
						<rect x="1016.544" y="1448.811" style="fill:#C1B19A;" width="12.932" height="23.974"/>
						<rect x="1016.544" y="1480.243" style="fill:#C1B19A;" width="12.932" height="23.973"/>
					</g>
					<g>
						<rect x="1035.303" y="1448.811" style="fill:#C1B19A;" width="12.932" height="23.974"/>
						<rect x="1035.303" y="1480.243" style="fill:#C1B19A;" width="12.932" height="23.973"/>
					</g>
				</g>
				<g>
					<g>
						<g>
							<rect x="960.267" y="1510.966" style="fill:#C1B19A;" width="12.932" height="23.974"/>
							<rect x="960.267" y="1542.398" style="fill:#C1B19A;" width="12.932" height="23.975"/>
						</g>
						<g>
							<rect x="979.026" y="1510.966" style="fill:#C1B19A;" width="12.932" height="23.974"/>
							<rect x="979.026" y="1542.398" style="fill:#C1B19A;" width="12.932" height="23.975"/>
						</g>
						<g>
							<rect x="997.785" y="1510.966" style="fill:#C1B19A;" width="12.932" height="23.974"/>
							<rect x="997.785" y="1542.398" style="fill:#C1B19A;" width="12.932" height="23.975"/>
						</g>
						<g>
							<rect x="1016.544" y="1510.966" style="fill:#C1B19A;" width="12.932" height="23.974"/>
							<rect x="1016.544" y="1542.398" style="fill:#C1B19A;" width="12.932" height="23.975"/>
						</g>
						<g>
							<rect x="1035.303" y="1510.966" style="fill:#C1B19A;" width="12.932" height="23.974"/>
							<rect x="1035.303" y="1542.398" style="fill:#C1B19A;" width="12.932" height="23.975"/>
						</g>
					</g>
					<g>
						<g>
							<rect x="960.267" y="1577.56" style="fill:#C1B19A;" width="12.932" height="23.974"/>
							<rect x="960.267" y="1608.992" style="fill:#C1B19A;" width="12.932" height="23.973"/>
						</g>
						<g>
							<rect x="979.026" y="1577.56" style="fill:#C1B19A;" width="12.932" height="23.974"/>
							<rect x="979.026" y="1608.992" style="fill:#C1B19A;" width="12.932" height="23.973"/>
						</g>
						<g>
							<rect x="997.785" y="1577.56" style="fill:#C1B19A;" width="12.932" height="23.974"/>
							<rect x="997.785" y="1608.992" style="fill:#C1B19A;" width="12.932" height="23.973"/>
						</g>
						<g>
							<rect x="1016.544" y="1577.56" style="fill:#C1B19A;" width="12.932" height="23.974"/>
							<rect x="1016.544" y="1608.992" style="fill:#C1B19A;" width="12.932" height="23.973"/>
						</g>
						<g>
							<rect x="1035.303" y="1577.56" style="fill:#C1B19A;" width="12.932" height="23.974"/>
							<rect x="1035.303" y="1608.992" style="fill:#C1B19A;" width="12.932" height="23.973"/>
						</g>
					</g>
					<g>
						<g>
							<rect x="960.267" y="1644.152" style="fill:#C1B19A;" width="12.932" height="23.974"/>
							<rect x="960.267" y="1675.585" style="fill:#C1B19A;" width="12.932" height="23.974"/>
						</g>
						<g>
							<rect x="979.026" y="1644.152" style="fill:#C1B19A;" width="12.932" height="23.974"/>
							<rect x="979.026" y="1675.585" style="fill:#C1B19A;" width="12.932" height="23.974"/>
						</g>
						<g>
							<rect x="997.785" y="1644.152" style="fill:#C1B19A;" width="12.932" height="23.974"/>
							<rect x="997.785" y="1675.585" style="fill:#C1B19A;" width="12.932" height="23.974"/>
						</g>
						<g>
							<rect x="1016.544" y="1644.152" style="fill:#C1B19A;" width="12.932" height="23.974"/>
							<rect x="1016.544" y="1675.585" style="fill:#C1B19A;" width="12.932" height="23.974"/>
						</g>
						<g>
							<rect x="1035.303" y="1644.152" style="fill:#C1B19A;" width="12.932" height="23.974"/>
							<rect x="1035.303" y="1675.585" style="fill:#C1B19A;" width="12.932" height="23.974"/>
						</g>
					</g>
					<g>
						<g>
							<rect x="960.267" y="1710.745" style="fill:#C1B19A;" width="12.932" height="23.974"/>
							<rect x="960.267" y="1742.178" style="fill:#C1B19A;" width="12.932" height="23.974"/>
						</g>
						<g>
							<rect x="979.026" y="1710.745" style="fill:#C1B19A;" width="12.932" height="23.974"/>
							<rect x="979.026" y="1742.178" style="fill:#C1B19A;" width="12.932" height="23.974"/>
						</g>
						<g>
							<rect x="997.785" y="1710.745" style="fill:#C1B19A;" width="12.932" height="23.974"/>
							<rect x="997.785" y="1742.178" style="fill:#C1B19A;" width="12.932" height="23.974"/>
						</g>
						<g>
							<rect x="1016.544" y="1710.745" style="fill:#C1B19A;" width="12.932" height="23.974"/>
							<rect x="1016.544" y="1742.178" style="fill:#C1B19A;" width="12.932" height="23.974"/>
						</g>
						<g>
							<rect x="1035.303" y="1710.745" style="fill:#C1B19A;" width="12.932" height="23.974"/>
							<rect x="1035.303" y="1742.178" style="fill:#C1B19A;" width="12.932" height="23.974"/>
						</g>
					</g>
					<g>
						<g>
							<rect x="960.267" y="1777.338" style="fill:#C1B19A;" width="12.932" height="23.975"/>
							<rect x="960.267" y="1808.771" style="fill:#C1B19A;" width="12.932" height="23.973"/>
						</g>
						<g>
							<rect x="979.026" y="1777.338" style="fill:#C1B19A;" width="12.932" height="23.975"/>
							<rect x="979.026" y="1808.771" style="fill:#C1B19A;" width="12.932" height="23.973"/>
						</g>
						<g>
							<rect x="997.785" y="1777.338" style="fill:#C1B19A;" width="12.932" height="23.975"/>
							<rect x="997.785" y="1808.771" style="fill:#C1B19A;" width="12.932" height="23.973"/>
						</g>
						<g>
							<rect x="1016.544" y="1777.338" style="fill:#C1B19A;" width="12.932" height="23.975"/>
							<rect x="1016.544" y="1808.771" style="fill:#C1B19A;" width="12.932" height="23.973"/>
						</g>
						<g>
							<rect x="1035.303" y="1777.338" style="fill:#C1B19A;" width="12.932" height="23.975"/>
							<rect x="1035.303" y="1808.771" style="fill:#C1B19A;" width="12.932" height="23.973"/>
						</g>
					</g>
				</g>
			</g>
			<g>
				<polygon style="fill:#715E60;" points="625.765,1524.333 625.765,1311.157 477.301,1311.157 477.301,1524.333 449.539,1537.504 
					449.539,1832.766 653.528,1832.766 653.528,1537.504 				"/>
				<polygon style="fill:#977D80;" points="603.319,1524.333 603.319,1311.157 454.855,1311.157 454.855,1524.333 427.093,1537.504 
					427.093,1832.766 631.081,1832.766 631.081,1537.504 				"/>
				<path style="fill:#977D80;" d="M530.447,1273.204v-69.293c0-0.752-0.609-1.36-1.359-1.36l0,0c-0.751,0-1.36,0.608-1.36,1.36
					v69.293c-27.037,0.7-48.736,22.133-48.736,48.49c0,26.799,22.429,48.523,50.095,48.523c27.667,0,50.095-21.725,50.095-48.523
					C579.182,1295.337,557.483,1273.904,530.447,1273.204z"/>
				<g>
					<g>
						<rect x="468.586" y="1325.557" style="fill:#C1B1B3;" width="16.997" height="39.04"/>
						<rect x="496.235" y="1325.557" style="fill:#C1B1B3;" width="16.997" height="39.04"/>
						<rect x="523.884" y="1325.557" style="fill:#C1B1B3;" width="16.997" height="39.04"/>
						<rect x="551.533" y="1325.557" style="fill:#C1B1B3;" width="16.998" height="39.04"/>
						<rect x="579.182" y="1325.557" style="fill:#C1B1B3;" width="16.998" height="39.04"/>
					</g>
					<g>
						<rect x="468.586" y="1372.372" style="fill:#C1B1B3;" width="16.997" height="39.039"/>
						<rect x="496.235" y="1372.372" style="fill:#C1B1B3;" width="16.997" height="39.039"/>
						<rect x="523.884" y="1372.372" style="fill:#C1B1B3;" width="16.997" height="39.039"/>
						<rect x="551.533" y="1372.372" style="fill:#C1B1B3;" width="16.998" height="39.039"/>
						<rect x="579.182" y="1372.372" style="fill:#C1B1B3;" width="16.998" height="39.039"/>
					</g>
					<g>
						<rect x="468.586" y="1419.187" style="fill:#C1B1B3;" width="16.997" height="39.039"/>
						<rect x="496.235" y="1419.187" style="fill:#C1B1B3;" width="16.997" height="39.039"/>
						<rect x="523.884" y="1419.187" style="fill:#C1B1B3;" width="16.997" height="39.039"/>
						<rect x="551.533" y="1419.187" style="fill:#C1B1B3;" width="16.998" height="39.039"/>
						<rect x="579.182" y="1419.187" style="fill:#C1B1B3;" width="16.998" height="39.039"/>
					</g>
					<g>
						<rect x="468.586" y="1466.001" style="fill:#C1B1B3;" width="16.997" height="39.039"/>
						<rect x="496.235" y="1466.001" style="fill:#C1B1B3;" width="16.997" height="39.039"/>
						<rect x="523.884" y="1466.001" style="fill:#C1B1B3;" width="16.997" height="39.039"/>
						<rect x="551.533" y="1466.001" style="fill:#C1B1B3;" width="16.998" height="39.039"/>
						<rect x="579.182" y="1466.001" style="fill:#C1B1B3;" width="16.998" height="39.039"/>
					</g>
					<g>
						<rect x="468.586" y="1512.815" style="fill:#C1B1B3;" width="16.997" height="39.04"/>
						<rect x="496.235" y="1512.815" style="fill:#C1B1B3;" width="16.997" height="39.04"/>
						<rect x="523.884" y="1512.815" style="fill:#C1B1B3;" width="16.997" height="39.04"/>
						<rect x="551.533" y="1512.815" style="fill:#C1B1B3;" width="16.998" height="39.04"/>
						<rect x="579.182" y="1512.815" style="fill:#C1B1B3;" width="16.998" height="39.04"/>
					</g>
					<g>
						<rect x="468.586" y="1559.631" style="fill:#C1B1B3;" width="16.997" height="39.039"/>
						<rect x="496.235" y="1559.631" style="fill:#C1B1B3;" width="16.997" height="39.039"/>
						<rect x="523.884" y="1559.631" style="fill:#C1B1B3;" width="16.997" height="39.039"/>
						<rect x="551.533" y="1559.631" style="fill:#C1B1B3;" width="16.998" height="39.039"/>
						<rect x="579.182" y="1559.631" style="fill:#C1B1B3;" width="16.998" height="39.039"/>
					</g>
					<g>
						<rect x="468.586" y="1606.445" style="fill:#C1B1B3;" width="16.997" height="39.04"/>
						<rect x="496.235" y="1606.445" style="fill:#C1B1B3;" width="16.997" height="39.04"/>
						<rect x="523.884" y="1606.445" style="fill:#C1B1B3;" width="16.997" height="39.04"/>
						<rect x="551.533" y="1606.445" style="fill:#C1B1B3;" width="16.998" height="39.04"/>
						<rect x="579.182" y="1606.445" style="fill:#C1B1B3;" width="16.998" height="39.04"/>
					</g>
					<g>
						<rect x="468.586" y="1653.261" style="fill:#C1B1B3;" width="16.997" height="39.039"/>
						<rect x="496.235" y="1653.261" style="fill:#C1B1B3;" width="16.997" height="39.039"/>
						<rect x="523.884" y="1653.261" style="fill:#C1B1B3;" width="16.997" height="39.039"/>
						<rect x="551.533" y="1653.261" style="fill:#C1B1B3;" width="16.998" height="39.039"/>
						<rect x="579.182" y="1653.261" style="fill:#C1B1B3;" width="16.998" height="39.039"/>
					</g>
					<g>
						<rect x="468.586" y="1700.075" style="fill:#C1B1B3;" width="16.997" height="39.04"/>
						<rect x="496.235" y="1700.075" style="fill:#C1B1B3;" width="16.997" height="39.04"/>
						<rect x="523.884" y="1700.075" style="fill:#C1B1B3;" width="16.997" height="39.04"/>
						<rect x="551.533" y="1700.075" style="fill:#C1B1B3;" width="16.998" height="39.04"/>
						<rect x="579.182" y="1700.075" style="fill:#C1B1B3;" width="16.998" height="39.04"/>
					</g>
					<g>
						<rect x="468.586" y="1746.891" style="fill:#C1B1B3;" width="16.997" height="39.039"/>
						<rect x="496.235" y="1746.891" style="fill:#C1B1B3;" width="16.997" height="39.039"/>
						<rect x="523.884" y="1746.891" style="fill:#C1B1B3;" width="16.997" height="39.039"/>
						<rect x="551.533" y="1746.891" style="fill:#C1B1B3;" width="16.998" height="39.039"/>
						<rect x="579.182" y="1746.891" style="fill:#C1B1B3;" width="16.998" height="39.039"/>
					</g>
					<g>
						<rect x="468.586" y="1793.705" style="fill:#C1B1B3;" width="16.997" height="39.039"/>
						<rect x="496.235" y="1793.705" style="fill:#C1B1B3;" width="16.997" height="39.039"/>
						<rect x="523.884" y="1793.705" style="fill:#C1B1B3;" width="16.997" height="39.039"/>
						<rect x="551.533" y="1793.705" style="fill:#C1B1B3;" width="16.998" height="39.039"/>
						<rect x="579.182" y="1793.705" style="fill:#C1B1B3;" width="16.998" height="39.039"/>
					</g>
				</g>
			</g>
			<g>
				<rect x="1503.492" y="1185.846" style="fill:#977D80;" width="4.93" height="136.07"/>
				<rect x="1455.434" y="1274.172" style="fill:#977D80;" width="101.045" height="95.487"/>
				<g>
					<rect x="1430.789" y="1313.958" style="fill:#977D80;" width="150.336" height="523.592"/>
					<g>
						<g>
							<rect x="1444.373" y="1324.9" style="fill:#CDC3C0;" width="19.715" height="19.098"/>
							<rect x="1477.213" y="1324.9" style="fill:#CDC3C0;" width="19.717" height="19.098"/>
							<rect x="1510.055" y="1324.9" style="fill:#CDC3C0;" width="19.717" height="19.098"/>
							<rect x="1542.896" y="1324.9" style="fill:#CDC3C0;" width="19.715" height="19.098"/>
						</g>
						<g>
							<rect x="1444.373" y="1364.884" style="fill:#CDC3C0;" width="19.715" height="19.098"/>
							<rect x="1477.213" y="1364.884" style="fill:#CDC3C0;" width="19.717" height="19.098"/>
							<rect x="1510.055" y="1364.884" style="fill:#CDC3C0;" width="19.717" height="19.098"/>
							<rect x="1542.896" y="1364.884" style="fill:#CDC3C0;" width="19.715" height="19.098"/>
						</g>
						<g>
							<rect x="1444.373" y="1404.866" style="fill:#CDC3C0;" width="19.715" height="19.098"/>
							<rect x="1477.213" y="1404.866" style="fill:#CDC3C0;" width="19.717" height="19.098"/>
							<rect x="1510.055" y="1404.866" style="fill:#CDC3C0;" width="19.717" height="19.098"/>
							<rect x="1542.896" y="1404.866" style="fill:#CDC3C0;" width="19.715" height="19.098"/>
						</g>
						<g>
							<rect x="1444.373" y="1444.851" style="fill:#CDC3C0;" width="19.715" height="19.098"/>
							<rect x="1477.213" y="1444.851" style="fill:#CDC3C0;" width="19.717" height="19.098"/>
							<rect x="1510.055" y="1444.851" style="fill:#CDC3C0;" width="19.717" height="19.098"/>
							<rect x="1542.896" y="1444.851" style="fill:#CDC3C0;" width="19.715" height="19.098"/>
						</g>
						<g>
							<rect x="1444.373" y="1484.834" style="fill:#CDC3C0;" width="19.715" height="19.098"/>
							<rect x="1477.213" y="1484.834" style="fill:#CDC3C0;" width="19.717" height="19.098"/>
							<rect x="1510.055" y="1484.834" style="fill:#CDC3C0;" width="19.717" height="19.098"/>
							<rect x="1542.896" y="1484.834" style="fill:#CDC3C0;" width="19.715" height="19.098"/>
						</g>
						<g>
							<rect x="1444.373" y="1524.817" style="fill:#CDC3C0;" width="19.715" height="19.098"/>
							<rect x="1477.213" y="1524.817" style="fill:#CDC3C0;" width="19.717" height="19.098"/>
							<rect x="1510.055" y="1524.817" style="fill:#CDC3C0;" width="19.717" height="19.098"/>
							<rect x="1542.896" y="1524.817" style="fill:#CDC3C0;" width="19.715" height="19.098"/>
						</g>
						<g>
							<rect x="1444.373" y="1564.801" style="fill:#CDC3C0;" width="19.715" height="19.098"/>
							<rect x="1477.213" y="1564.801" style="fill:#CDC3C0;" width="19.717" height="19.098"/>
							<rect x="1510.055" y="1564.801" style="fill:#CDC3C0;" width="19.717" height="19.098"/>
							<rect x="1542.896" y="1564.801" style="fill:#CDC3C0;" width="19.715" height="19.098"/>
						</g>
						<g>
							<rect x="1444.373" y="1604.784" style="fill:#CDC3C0;" width="19.715" height="19.098"/>
							<rect x="1477.213" y="1604.784" style="fill:#CDC3C0;" width="19.717" height="19.098"/>
							<rect x="1510.055" y="1604.784" style="fill:#CDC3C0;" width="19.717" height="19.098"/>
							<rect x="1542.896" y="1604.784" style="fill:#CDC3C0;" width="19.715" height="19.098"/>
						</g>
						<g>
							<rect x="1444.373" y="1644.768" style="fill:#CDC3C0;" width="19.715" height="19.098"/>
							<rect x="1477.213" y="1644.768" style="fill:#CDC3C0;" width="19.717" height="19.098"/>
							<rect x="1510.055" y="1644.768" style="fill:#CDC3C0;" width="19.717" height="19.098"/>
							<rect x="1542.896" y="1644.768" style="fill:#CDC3C0;" width="19.715" height="19.098"/>
						</g>
						<g>
							<rect x="1444.373" y="1684.752" style="fill:#CDC3C0;" width="19.715" height="19.098"/>
							<rect x="1477.213" y="1684.752" style="fill:#CDC3C0;" width="19.717" height="19.098"/>
							<rect x="1510.055" y="1684.752" style="fill:#CDC3C0;" width="19.717" height="19.098"/>
							<rect x="1542.896" y="1684.752" style="fill:#CDC3C0;" width="19.715" height="19.098"/>
						</g>
						<g>
							<rect x="1444.373" y="1724.734" style="fill:#CDC3C0;" width="19.715" height="19.098"/>
							<rect x="1477.213" y="1724.734" style="fill:#CDC3C0;" width="19.717" height="19.098"/>
							<rect x="1510.055" y="1724.734" style="fill:#CDC3C0;" width="19.717" height="19.098"/>
							<rect x="1542.896" y="1724.734" style="fill:#CDC3C0;" width="19.715" height="19.098"/>
						</g>
						<g>
							<rect x="1444.373" y="1764.719" style="fill:#CDC3C0;" width="19.715" height="19.098"/>
							<rect x="1477.213" y="1764.719" style="fill:#CDC3C0;" width="19.717" height="19.098"/>
							<rect x="1510.055" y="1764.719" style="fill:#CDC3C0;" width="19.717" height="19.098"/>
							<rect x="1542.896" y="1764.719" style="fill:#CDC3C0;" width="19.715" height="19.098"/>
						</g>
						<g>
							<rect x="1444.373" y="1804.702" style="fill:#CDC3C0;" width="19.715" height="19.098"/>
							<rect x="1477.213" y="1804.702" style="fill:#CDC3C0;" width="19.717" height="19.098"/>
							<rect x="1510.055" y="1804.702" style="fill:#CDC3C0;" width="19.717" height="19.098"/>
							<rect x="1542.896" y="1804.702" style="fill:#CDC3C0;" width="19.715" height="19.098"/>
						</g>
					</g>
				</g>
			</g>
		</g>
	</g>
	<rect x="227.656" y="1810.27" style="fill:#565C82;" width="2286.452" height="45.859"/>
	<g>
		<path style="fill:#50336E;" d="M2048.125,1621.592c-4.488-18.041-16.219-30.942-29.947-30.942v3.906
			c15.438,0,27.994,19.429,27.994,43.31v143.272h3.906v-143.272c0-23.881,12.559-43.31,27.994-43.31v-3.906
			C2064.346,1590.65,2052.615,1603.551,2048.125,1621.592z"/>
		<circle style="fill:#FFD978;" cx="2012.563" cy="1592.603" r="13.683"/>
		<path style="fill:#FFBF5B;" d="M2019.162,1580.615c1.08,1.957,1.695,4.207,1.695,6.6c0,7.557-6.125,13.684-13.682,13.684
			c-2.395,0-4.643-0.615-6.602-1.695c2.33,4.222,6.824,7.082,11.988,7.082c7.557,0,13.684-6.126,13.684-13.683
			C2026.246,1587.439,2023.385,1582.944,2019.162,1580.615z"/>
		<circle style="fill:#FFD978;" cx="2083.852" cy="1592.603" r="13.683"/>
		<path style="fill:#FFBF5B;" d="M2089.586,1600.551c-7.557,0-13.684-6.125-13.684-13.682c0-2.303,0.57-4.472,1.574-6.375
			c-4.346,2.292-7.309,6.854-7.309,12.108c0,7.557,6.127,13.683,13.684,13.683c5.254,0,9.816-2.963,12.109-7.308
			C2094.057,1599.982,2091.889,1600.551,2089.586,1600.551z"/>
		<rect x="2043.486" y="1768.985" style="fill:#82557C;" width="9.766" height="41.284"/>
		<path style="fill:#82557C;" d="M2057.646,1810.27h-19.043l0,0c0-2.268,1.838-4.105,4.105-4.105h10.834
			C2055.809,1806.164,2057.646,1808.002,2057.646,1810.27L2057.646,1810.27z"/>
	</g>
	<g>
		<path style="fill:#50336E;" d="M705.617,1269.099c-12.886-51.783-46.555-88.814-85.958-88.814v11.213
			c44.306,0,80.351,55.765,80.351,124.313v411.229h11.212V1315.81c0-68.548,36.045-124.313,80.351-124.313v-11.213
			C752.171,1180.284,718.502,1217.315,705.617,1269.099z"/>
		<path style="fill:#FFD978;" d="M642.814,1185.891c0,21.69-17.583,39.273-39.274,39.273c-21.69,0-39.273-17.583-39.273-39.273
			s17.583-39.273,39.273-39.273C625.231,1146.617,642.814,1164.2,642.814,1185.891z"/>
		<path style="fill:#FFBF5B;" d="M622.485,1151.483c3.1,5.617,4.866,12.074,4.866,18.945c0,21.689-17.583,39.273-39.274,39.273
			c-6.87,0-13.326-1.767-18.945-4.866c6.688,12.118,19.588,20.328,34.408,20.328c21.691,0,39.275-17.583,39.275-39.273
			C642.815,1171.07,634.604,1158.17,622.485,1151.483z"/>
		
			<ellipse transform="matrix(0.0333 -0.9994 0.9994 0.0333 -403.9675 1954.1392)" style="fill:#FFD978;" cx="808.161" cy="1185.891" rx="39.273" ry="39.274"/>
		<path style="fill:#FFBF5B;" d="M824.619,1208.706c-21.69,0-39.273-17.583-39.273-39.273c0-6.608,1.634-12.834,4.517-18.299
			c-12.472,6.58-20.975,19.675-20.975,34.757c0,21.69,17.583,39.273,39.274,39.273c15.082,0,28.177-8.503,34.756-20.976
			C837.452,1207.072,831.227,1208.706,824.619,1208.706z"/>
		<rect x="692.302" y="1692.162" style="fill:#82557C;" width="28.03" height="118.496"/>
		<path style="fill:#82557C;" d="M732.946,1810.658h-54.659l0,0c0-6.507,5.275-11.781,11.782-11.781h31.094
			C727.671,1798.877,732.946,1804.151,732.946,1810.658L732.946,1810.658z"/>
	</g>
	<g>
		<g>
			<path style="fill:#FF7446;" d="M1672.905,869.513c0,0-30.608-44.876-41.495-50.32c-10.888-5.444,26.939-29.841,26.939-29.841
				l48.846,64.843L1672.905,869.513z"/>
			<path style="fill:#FF7446;" d="M1855.034,1738.813c0,0,2.777,18.75-17.362,28.473c-20.139,9.723-38.195,19.444-38.195,30.556
				c0,11.11,125.002,6.944,125.002,0c0-6.945-23.611-65.974-23.611-65.974L1855.034,1738.813z"/>
			<path style="fill:#FF7446;" d="M1998.786,1741.591v39.584c0,0,45.833,31.249,88.195,31.249c0,0,34.028,1.218,34.028-7.724
				c0-8.941-23.672-25.274-52.296-39.285c-28.623-14.015-27.351-46.274-27.351-46.274l-42.577,7.172V1741.591z"/>
			<path style="fill:#00299E;" d="M1830.721,717.27c0,0-19.438-0.695-30.549,26.389c-11.11,27.083-29.168,131.946-49.307,138.891
				c-20.139,6.944-54.861-49.306-54.861-49.306l-34.724,23.612c0,0,54.168,143.057,104.863,137.501
				c50.694-5.555,65.974-167.363,75.695-202.78C1851.562,756.159,1830.721,717.27,1830.721,717.27z"/>
			<path style="fill:#FCC332;" d="M2015.804,1156.859c-13.545-68.057-233.415-45.896-230.215,8.333c0,0,6.944,133.336,20.833,280.56
				s41.667,300.005,41.667,300.005h60.813c0,0-33.472-472.547-17.122-488.896c4.671-4.671,9.764-6.56,14.656-6.875
				c12.505-0.804,23.281,8.856,24.936,21.28l63.941,480.046l55.556-5.555C2050.869,1745.757,2029.35,1224.915,2015.804,1156.859z"/>
			<path style="opacity:0.53;fill:#0C72CA;" d="M1787.207,1193.689c24.431,7.465,159.996,31.18,234.465,13.31
				c-2.053-23.404-4.033-40.924-5.868-50.14c-13.545-68.057-233.415-45.896-230.215,8.333
				C1785.604,1165.456,1786.06,1174.409,1787.207,1193.689z"/>
			<path style="fill:#D9A521;" d="M1878.945,1537.404c5.426,89.531,12.186,157.47,18.822,208.353h11.135
				c0,0-33.472-472.547-17.122-488.896C1891.78,1256.86,1862.388,1264.209,1878.945,1537.404z"/>
			<path style="fill:#0037D3;" d="M1874.478,707.547c0,0-38.209,9.723-43.757,9.723s-83.327,359.727-75.688,395.838
				s24.306,65.28,24.306,65.28s187.503,35.416,255.56-6.251c0,0-8.333-179.863-8.333-242.365c0-62.5,50-180.558,33.334-204.169
				c-16.668-23.611-81.946-36.806-81.946-36.806L1874.478,707.547z"/>
			<path style="fill:#0A72F8;" d="M1951.563,654.769c-3.473,0-74.308-3.472-101.391,15.973
				c-27.084,19.444-21.182,36.458-10.417,47.223c10.764,10.764,82.141,16.423,82.141,16.423s-37.695-32.335-30.116-39.914
				c7.579-7.579,79.61-11.951,84.143-0.015c1.237,3.26-43.134,39.929-43.134,39.929s61.099-4.445,79.795-17.119
				c20.993-14.229,20.105-34.926-0.604-50.694C2001.097,658.288,1951.563,654.769,1951.563,654.769z"/>
			<path style="fill:#2769BC;" d="M1932.789,734.386c0,0,89.848-46.13,48.751-62.983c-41.097-16.853-115.899,11.827-108.51,30.158
				c7.389,18.331,48.866,32.826,48.866,32.826s-37.695-32.335-30.116-39.914c7.579-7.579,79.61-11.951,84.143-0.015
				C1977.16,697.717,1932.789,734.386,1932.789,734.386z"/>
			<path style="fill:#FF5016;" d="M1882.117,669.352c0,0,8.685,28.112,8.685,35.237c0,7.125,20.483,30.736,37.149,30.736
				c16.668,0,49.209-40.852,49.209-40.852l-19.348-98.675L1882.117,669.352z"/>
			<path style="opacity:0.68;fill:#FF4900;" d="M1962.681,620.624l-4.868-24.827l-75.695,73.555c0,0,8.685,28.112,8.685,35.237
				c0,1.7,1.166,4.339,3.169,7.371c2.537-0.421,5.071-1.086,7.592-1.996C1923.967,701.884,1952.115,660.27,1962.681,620.624z"/>
			<path style="fill:#FF7446;" d="M1816.838,572.823c0,0-4.182,31.25,13.883,72.223c18.063,40.973,45.112,55.605,70.842,47.102
				c25.729-8.502,59.028-57.519,64.584-97.797c5.556-40.279-12.501-77.779-45.834-92.363
				C1886.979,487.405,1816.838,504.072,1816.838,572.823z"/>
			<path style="fill:#0B0080;" d="M1913.731,566.453c19,20,18.681,24,18.681,24c13.486-30.333,19.992-10.976,20.819,0.667
				c1.333,18.775-10.852,17.716-9.926,18.775c8.177,29.892,23.835,33.476,23.835,33.476c13.592-21.462,17.448-28.917,10.02-41.917
				c4.571-12,12.89-19.594-10.02-39.047C1946.731,538.453,1913.731,566.453,1913.731,566.453z"/>
			<path style="opacity:0.68;fill:#FF4900;" d="M1929.639,562.497c0,0-76.147,8.693-112.173-0.618
				c-0.411,3.491-0.628,7.137-0.628,10.944c0,0-3.005,22.465,7.09,54.274c4.844-0.804,9.889-1.929,15.133-3.433
				C1898.09,606.725,1929.639,562.497,1929.639,562.497z"/>
			<path style="fill:#FEC100;" d="M1902.257,474.905c0,0-41.369-0.694-64.436,14.584c-23.065,15.278-37.649,40.278-32.788,67.362
				l19.445,12.5h77.778l27.382-8.333l37.502,1.389c0,0,6.645-34.028-5.855-54.168C1948.785,488.1,1929.34,474.905,1902.257,474.905z
				"/>
			<path style="fill:#FA8E00;" d="M1961.285,508.239c-2.735-4.407-5.804-8.481-9.209-12.156
				c-1.669,6.865-6.686,16.776-19.665,29.754c-20.78,20.781-93.427,21.465-128.312,20.518c-0.005,3.452,0.298,6.956,0.934,10.496
				l19.445,12.5h77.778l27.382-8.334l37.502,1.389C1967.141,562.406,1973.785,528.378,1961.285,508.239z"/>
			<g>
				<path style="fill:#001E6E;" d="M1922.697,1775.52c0,0,1.617,9.649,5.658,26.091c4.043,16.44,0,31.451,0,31.451
					s-168.137-2.145-174.604-7.862c-6.468-5.718-1.819-24.84,0-26.447c1.818-1.609,23.441-6.076,34.76-12.152
					c11.316-6.076,50.117-29.307,62.646-27.52c12.529,1.786,17.784,11.436,41.63,13.938
					C1916.635,1775.52,1917.039,1770.516,1922.697,1775.52z"/>
				<path style="fill:#C5F6FC;" d="M1753.752,1825.199c6.467,5.718,174.604,7.862,174.604,7.862s2.652-9.851,1.512-22.33
					c-88.494,10.948-176.115-11.979-176.115-11.979C1751.933,1800.359,1747.284,1819.481,1753.752,1825.199z"/>
				<path style="fill:#93B8BD;" d="M1929.867,1810.731c-60.486,8.339-126.594,1.827-176.115-11.979
					c90.431,19.27,164.659,13.019,159.536,13.229C1913.513,1811.964,1930.979,1810.647,1929.867,1810.731z"/>
			</g>
			<g>
				<path style="fill:#001E6E;" d="M1994.173,1774.171c0,0-2.182,9.538-7.182,25.713c-5.003,16.173-1.851,31.396-1.851,31.396
					s167.973,7.745,174.766,2.417c6.791-5.328,3.275-24.69,1.555-26.402c-1.721-1.712-23.045-7.443-33.984-14.174
					c-10.94-6.73-48.309-32.202-60.922-31.156c-12.612,1.047-18.425,10.373-42.377,11.468
					C2000.227,1774.527,2000.117,1769.508,1994.173,1774.171z"/>
				<path style="fill:#C5F6FC;" d="M2159.906,1833.697c-6.793,5.328-174.766-2.416-174.766-2.416s-2.068-9.989-0.194-22.382
					c87.698,16.134,176.515-1.605,176.515-1.605C2163.182,1809.009,2166.697,1828.369,2159.906,1833.697z"/>
				<path style="fill:#93B8BD;" d="M1984.946,1808.9c59.892,11.882,126.267,9.267,176.515-1.605
					c-91.406,13.92-165.14,3.316-160.038,3.827C2001.2,1811.091,1983.841,1808.75,1984.946,1808.9z"/>
			</g>
			<g>
				<path style="fill:#FFFFFF;" d="M1940.049,872.354c-0.703,0-1.396-0.31-1.863-0.907c-0.6-0.768-14.694-18.966-14.694-35.754
					c0-17.329,23.26-24.022,23.26-37.055c0-21.118-28.18-22.523-2.831-70.103c0.614-1.15,2.046-1.587,3.198-0.975
					c1.153,0.615,1.592,2.046,0.978,3.2c-0.102,0.189-10.018,18.966-10.018,32.002c0,12.819,13.404,20.462,13.404,35.875
					c0,15.952-23.26,22.268-23.26,37.055c0,15.143,13.551,32.664,13.688,32.839c0.805,1.03,0.622,2.516-0.405,3.32
					C1941.071,872.192,1940.559,872.354,1940.049,872.354z"/>
			</g>
			<g>
				<path style="fill:#FFFFFF;" d="M1889.633,836.684c-17.328-37.586,20.123-32.021,4.407-80.285
					c-5.815-17.859,2.318-29.951,2.668-30.458c0.74-1.077,2.215-1.344,3.288-0.605c1.076,0.739,1.348,2.208,0.61,3.285
					c-13.746,20.202,13.962,42.412-4.257,72.426c-7.77,12.811-9.12,19.126-2.421,33.655
					C1895.24,837.544,1890.946,839.524,1889.633,836.684z"/>
			</g>
			<path style="fill:#FF7446;" d="M2045.699,1037.76c0,0-19.527,31.312-51.445,31.312c-31.917,0-27.079,40.724-12.258,55.546
				s25.404,16.813,33.535,11.854c21.332-13.009,63.873-76.271,63.873-76.271L2045.699,1037.76z"/>
			<path style="fill:#0037D3;" d="M2161.982,916.577c-8.333-70.834-102.084-190.975-102.084-190.975l-28.474,133.335
				c0,0,47.918,56.25,50.695,81.674c2.778,25.424-39.584,83.607-43.75,94.023c-4.167,10.416,26.389,41.667,31.249,41.667
				C2101.246,1076.302,2170.315,987.412,2161.982,916.577z"/>
			<path style="fill:#001E6E;" d="M1569.033,731.6c0,0,39.81-13.27,48.996-4.084c9.187,9.187,76.668,79.005,74.855,85.743
				c-0.562,2.081-30.344,15.695-46.676,12.973C1629.877,823.511,1551.202,738.913,1569.033,731.6z"/>
			<path style="fill:#001653;" d="M1587.955,731.6c0,0,13.098-4.365,25.998-6.355c-13.428-4.143-44.92,6.355-44.92,6.355
				c-17.831,7.313,60.844,91.911,77.176,94.632c4.611,0.768,10.292,0.236,16.086-0.973
				C1641.313,815.397,1570.999,738.554,1587.955,731.6z"/>
			<path style="fill:#FF7446;" d="M1597.363,783.543c0,0-10.715,16.585,34.047,35.65c7.513,3.199,18.27-42.655,13.678-47.248
				c-4.594-4.593-18.67,32.091-20.448,31.222c-6.217-3.039,22.313-38.475,14.023-41.376c-7.619-2.667-24.595,29.701-26.457,27.838
				c-2.97-2.97,25.144-31.775,13.4-34.26C1621.342,754.466,1603.804,768.33,1597.363,783.543z"/>
			<path style="fill:#FEC100;" d="M1805.033,556.851l-59.028,38.947c0,0,34.027,22.859,93.056,10.359
				c59.029-12.5,90.578-45.14,90.578-45.14S1830.728,569.35,1805.033,556.851z"/>
			<path style="fill:#0A72F8;" d="M2012.541,1137.853c-48.817-16.534-58.053-66.105-45.313-114.55l-150.523-12.17
				c-1.916-0.153-3.664,1.298-3.823,3.251c-0.156,1.953,1.298,3.664,3.249,3.822l142.184,11.496
				c-3.768,18.365-14.438,92.386,51.948,114.872c0.379,0.128,0.763,0.188,1.14,0.188c1.479,0,2.86-0.932,3.36-2.409
				C2015.392,1140.494,2014.396,1138.48,2012.541,1137.853z"/>
		</g>
		<path style="fill:#FFFFFF;" d="M1656.975,429.508c60.484,0,109.517,25.974,109.517,58.014c0,9.612-73.57,229.609-73.57,229.609
			l32.694-184.414c-19.818,10.499-38.397,12.819-68.641,12.819c-60.483,0-109.516-25.974-109.516-58.014
			C1547.459,455.481,1596.491,429.508,1656.975,429.508z"/>
		<path style="fill:#FF0000;" d="M1656.977,332.508c-25.127,0-45.494,18.175-45.494,40.595c0,22.421,45.494,132.137,45.494,132.137
			s45.493-109.716,45.493-132.137C1702.47,350.684,1682.101,332.508,1656.977,332.508z M1656.977,396.689
			c-10.659,0-19.3-8.64-19.3-19.298c0-10.659,8.641-19.299,19.3-19.299c10.658,0,19.297,8.64,19.297,19.299
			C1676.273,388.05,1667.635,396.689,1656.977,396.689z"/>
	</g>
	<g>
		<path style="fill:#0B0080;" d="M1050.916,599.173c-51.741-9.437-119.827-2.902-148.377,59.017
			c-28.549,61.919-63.362,266.492-40.6,313.156c22.763,46.664,79.67,87.72,136.577,64.916
			c44.072-17.661,185.697-268.358,152.512-387.58C1141.364,613.961,1090.694,606.427,1050.916,599.173z"/>
		<path style="fill:#0087FC;" d="M1113.663,645.599l30.052-15.139c0,0,168.657,134.634,194.194,141.573l-20.313,56.964
			c0,0-115.182-16.168-183.457-76.269C1065.864,692.626,1113.663,645.599,1113.663,645.599z"/>
		<path style="fill:#FF7446;" d="M1120.506,1733.777c0,0-3.203,21.625,20.024,32.838c23.228,11.215,44.053,22.427,44.053,35.242
			s-144.171,8.01-144.171,0c0-8.009,27.233-76.09,27.233-76.09L1120.506,1733.777z"/>
		<path style="fill:#FF7446;" d="M954.713,1736.98v45.654c0,0-52.863,36.042-101.72,36.042c0,0-39.247,1.404-39.247-8.909
			s27.302-29.148,60.314-45.311c33.013-16.162,31.546-53.369,31.546-53.369l49.107,8.272V1736.98z"/>
		<path style="fill:#483342;" d="M935.084,1062.589c15.623-78.493,269.206-52.935,265.517,9.611c0,0-8.01,153.78-24.029,323.58
			c-16.019,169.799-48.056,346.006-48.056,346.006h-70.139c0,0,38.604-545.006,19.748-563.862
			c-5.387-5.388-11.261-7.565-16.903-7.929c-14.424-0.928-26.853,10.215-28.76,24.542l-73.747,553.658l-64.074-6.409
			C894.642,1741.786,919.461,1141.081,935.084,1062.589z"/>
		<path style="opacity:0.53;fill:#20211F;" d="M935.084,1062.589c14.432-72.514,231.933-56.221,262.083-4.006
			c-0.122,0.271-19.7,44.094-86.154,44.094c-54.873,0-140.533-7.59-176.469-37.163
			C934.725,1064.479,934.906,1063.487,935.084,1062.589z"/>
		<path style="fill:#2C0422;" d="M952.737,992.461c38.212,42.377,230.876,74.494,249.182,9.542c0.056-0.2,0.107-0.419,0.163-0.625
			c0.044,15.815,1.173,52.43-4.911,57.192c-44.013,34.453-202.62,17.392-242.968-22.956
			C945.04,1026.451,952.737,992.461,952.737,992.461z"/>
		<path style="fill:#4185BF;" d="M1071.205,1077.624h77.981c3.715,0,6.727-3.012,6.727-6.727v-37.719
			c0-3.716-3.012-6.728-6.727-6.728h-77.98c-3.716,0-6.728,3.013-6.728,6.729v37.718
			C1064.479,1074.612,1067.49,1077.624,1071.205,1077.624z"/>
		<path style="fill:#DDE9F3;" d="M1079.287,1069.146h63.452c3.715,0,6.727-3.012,6.727-6.727v-19.43
			c0-3.716-3.013-6.727-6.728-6.727h-63.451c-3.715,0-6.728,3.012-6.728,6.727v19.429
			C1072.56,1066.134,1075.572,1069.146,1079.287,1069.146z"/>
		<path style="opacity:0.53;fill:#20211F;" d="M1092.929,1501.485c-6.257,103.262-14.055,181.616-21.709,240.301h-12.842
			c0,0,38.604-545.006,19.748-563.862C1078.125,1177.924,1112.025,1186.4,1092.929,1501.485z"/>
		<path style="fill:#0087FC;" d="M1143.019,629.905c14.08,2.274,66.03,332.648,49.808,384.648
			c-17.03,54.591-196.281,27.599-231.832-8.02c-37.248-37.317-7.819-147.229-7.819-199.366c0-52.137-48.469-150.615-32.313-170.312
			c16.156-19.696,57.667-30.513,79.436-30.702C1025.78,605.933,1137.709,629.047,1143.019,629.905z"/>
		<path style="fill:#0B0080;" d="M1114.607,623.572c21.625,43.89,33.006,109.902,33.006,109.902
			c10.243-81.1-10.149-105.089-10.149-105.089C1121.911,623.031,1114.607,623.572,1114.607,623.572z"/>
		<path style="fill:#0B0080;" d="M1004.587,602.587c0.127,0.698,0.321,1.39,0.364,2.101c5.707,95.021-52.023,199.8-59.547,208.076
			c-3.794,44.767-7.587,72.841-7.587,72.841c66.771-59.942,90.663-197.039,91.421-235.789c0.759-38.75,0.769-43.815-1.508-47.229
			C1025.453,599.173,1004.295,600.865,1004.587,602.587z"/>
		<path style="opacity:0.56;fill:#0065BD;" d="M1042.776,888.096c-7.752-0.524-16.9-0.407-23.615,1.941
			c-8.92,3.12-48.804,28.028-77.017,45.982c0.125-17.845,1.894-36.892,3.979-55.342c18.099-9.594,32.844-17.254,34.165-17.254
			c2.715,0,50.462-3.36,72.462-4.918l63.135-187.299c2.985-9.706,18.307-20.413,28.593-18.638
			c5.192,0.896,53.749,270.766,50.925,342.34l-161.546,6.013c-14.073,0.524-24.508-12.518-20.484-25.601L1042.776,888.096z"/>
		<path style="fill:#0065BD;" d="M1101.038,648.454c-0.581-1.563,0.383-3.246,2.152-3.758c1.771-0.516,3.672,0.339,4.252,1.901
			c0.274,0.742,27.723,75.146,44.122,161.322c21.283,111.854,15.194,191.22-18.058,236.127c-2.871,0.303-5.805,0.557-8.786,0.771
			c34.552-42.133,41.552-123.628,20.209-235.839C1128.621,723.232,1101.313,649.191,1101.038,648.454z"/>
		<g>
			<path style="fill:#001E6E;" d="M1042.467,1776.115c0,0-1.865,11.129-6.525,30.09c-4.662,18.961,0,36.274,0,36.274
				s193.919-2.474,201.378-9.069c7.458-6.594,2.098-28.648,0-30.503c-2.098-1.854-27.037-7.008-40.089-14.015
				c-13.053-7.007-57.803-33.801-72.254-31.74c-14.451,2.063-20.511,13.191-48.015,16.076
				C1049.459,1776.115,1048.993,1770.344,1042.467,1776.115z"/>
			<path style="fill:#334B8B;" d="M1237.319,1833.41c-7.459,6.595-201.378,9.069-201.378,9.069s-3.06-11.36-1.743-25.755
				c102.064,12.627,203.121-13.818,203.121-13.818C1239.417,1804.762,1244.777,1826.817,1237.319,1833.41z"/>
			<path style="fill:#6678A8;" d="M1034.198,1816.725c69.763,9.619,146.005,2.108,203.121-13.818
				c-104.296,22.226-189.907,15.017-184,15.259C1053.062,1818.146,1032.917,1816.627,1034.198,1816.725z"/>
		</g>
		<g>
			<path style="fill:#001E6E;" d="M960.031,1774.559c0,0,2.516,11,8.285,29.654c5.768,18.655,2.133,36.212,2.133,36.212
				s-193.729,8.933-201.564,2.788c-7.834-6.146-3.778-28.475-1.793-30.451c1.984-1.975,26.578-8.585,39.195-16.348
				c12.619-7.763,55.716-37.141,70.263-35.933c14.546,1.207,21.25,11.961,48.876,13.225
				C953.052,1774.969,953.178,1769.181,960.031,1774.559z"/>
			<path style="fill:#334B8B;" d="M768.886,1843.212c7.834,6.145,201.564-2.787,201.564-2.787s2.384-11.521,0.225-25.813
				c-101.146,18.606-203.581-1.851-203.581-1.851C765.108,1814.737,761.052,1837.067,768.886,1843.212z"/>
			<path style="fill:#6678A8;" d="M970.674,1814.612c-69.076,13.704-145.628,10.689-203.581-1.851
				c105.423,16.055,190.461,3.823,184.577,4.414C951.928,1817.141,971.947,1814.439,970.674,1814.612z"/>
		</g>
		<polygon style="fill:#FF7446;" points="1121.503,554.979 1108.964,656.512 1029.996,611.066 1072.502,536.863 		"/>
		<path style="opacity:0.68;fill:#FF682B;" d="M1062.89,554.078l9.612-17.215l49.001,18.117l-6.903,55.893
			c-6.34-1.8-12.093-4.24-16.592-7.327C1084.879,594.536,1071.679,575.042,1062.89,554.078z"/>
		<path style="fill:#FF916C;" d="M1184.784,447.327c0,0,2.963,0.406,5.798,27.17c2.02,19.078-1.347,38.534-4.097,57.378
			c-4.096,28.065-10.865,57.274-31.839,77.737c-11.024,10.756-64.576-15.546-78.928-38.594
			c-14.353-23.047-13.109-69.639,2.721-94.193S1178.383,437.049,1184.784,447.327z"/>
		<path style="fill:#0B0080;" d="M1076.421,544.404c-5.506,5.256-12.804,10.069-22.977,8.695
			c-14.069-1.9-13.949-25.271-8.357-54.505c1.959-10.239,0.635-35.704,2.306-44.119c11.275-56.791,62.376-50.797,83.108-49.844
			c36.364,1.672,63.966-3.48,80.422,24.288c13.301,22.445-2.927,30.734-0.896,36.773c7.086,21.065-10.23,30.889-39.492,20.535
			C1104.571,462.883,1087.037,534.269,1076.421,544.404z"/>
		<path style="fill:#FF916C;" d="M1105.7,514.401c0,0,0.338-22.712-11.878-19.869c-12.217,2.844-18.835,26.666-8.386,32.705
			C1095.883,533.277,1105.7,514.401,1105.7,514.401z"/>
		<path style="fill:#6F81A6;" d="M1361.81,662.558c0,0-5.116-4.177,7.981-9.189c8.007-3.064,16.938-4.082,25.761-3.602
			c9.756,0.532,24.196,1.394,28.251,6.355c0.459,0.56-28.418,146.76-28.418,146.76h-70.851L1361.81,662.558z"/>
		<path style="fill:#53617D;" d="M1388.619,655.618c0,0,20.331,0.118,22.753,10.203c0.793,3.296-33.757,36.163-33.757,36.163
			L1388.619,655.618z"/>
		<path style="fill:#0065BD;" d="M1411.372,665.821c0,0-32.638,5.288-50.449-6.109l-67.062,304.378h13.59L1411.372,665.821z"/>
		<path style="fill:#F2F9FF;" d="M1129.479,665.962c2.786-9.344,12.128-15.114,21.727-13.406
			c44.857,7.981,166.872,28.685,210.412,25.876c53.772-3.469,62.185-22.31,62.185-22.31s7.777,10.746-20.554,129.277
			c-21.398,89.521-41.146,152.987-49.532,178.691c-2.49,7.633-9.47,12.894-17.493,13.202l-276.255,10.607
			c-13.133,0.504-22.871-12.05-19.117-24.645L1129.479,665.962z"/>
		<path style="fill:#FFFFFF;" d="M1040.852,963.254l88.627-297.292c2.786-9.343,12.128-15.114,21.727-13.406
			c44.857,7.981,166.872,28.685,210.412,25.876c53.773-3.469,62.185-22.31,62.185-22.31s5.346,7.389-8.972,77.458
			c-45.034,2.143-164.333-18.104-208.576-25.976c-9.6-1.708-18.941,4.063-21.728,13.406l-79.042,265.14l-45.517,1.748
			C1046.835,988.403,1037.098,975.849,1040.852,963.254z"/>
		<path style="fill:#0087FC;" d="M833.278,820.415c3.182-9.542,0-8.481,0-19.79s17.102-17.602,19.522-25.194
			c19.351-60.68,54.385-124.899,68.062-138.576c8.088-8.088,33.452,131.081,33.452,131.081s-36.16,65.266-39.125,87.781
			c-27.812-2.957-64.567,2.967-92.264,7.705c0,0-6.609-18.977-6.609-27.812C816.316,826.776,830.099,829.957,833.278,820.415z"/>
		<path style="fill:#339FFD;" d="M929.614,837.731c0,0-2.982,22.602-13.79,24.377c-10.807,1.774-92.281,57.088-104.455,58.552
			c-12.175,1.464-4.271-71.974-2.666-80.455c1.605-8.481,13.621-9.695,40.125-11.208
			C875.332,827.483,929.614,805.309,929.614,837.731z"/>
		<path style="fill:#FF7446;" d="M803.8,937.506c-5.636-38.166,18.441-74.416,55.53-85.038
			c46.711-13.378,110.573-24.33,126.552-28.782c20.115-5.604,64.799-14.655,80.988-20.438c16.19-5.782,36.427,6.071,49.438,3.469
			c13.008-2.602,7.516,10.408-4.337,10.408s-25.152-4.047-25.152,0c0,4.047,20.526,5.493,35.56,2.313
			c15.034-3.181,15.034-3.184,15.034,1.733c0,4.916-21.972,15.324-51.171,11.566c0,0-6.794,1.3-4.626,3.469
			c2.168,2.169,35.56-4.047,44.811,0c9.252,4.047,3.469,11.275-18.502,13.01c-21.972,1.735-26.597,0.289-28.043,4.047
			c-1.446,3.758,32.668-2.891,34.403,2.602c1.735,5.493-45.389,15.901-54.062,14.455c-5.185-0.864-26.963-0.646-43.645-0.332
			c-6.77,0.128-13.381,2.016-19.201,5.478c-36.664,21.809-176.83,102.65-190.889,72.525
			C805.467,945.808,804.49,942.178,803.8,937.506z"/>
		<path style="fill:#FF7446;" d="M1348.577,880.569c2.435-4.957,21.866,21.738,23.023,20.57
			c4.044-4.087-26.162-26.081-20.498-30.581c5.208-4.137,25.841,18.259,26.828,16.249c1.574-3.205-26.751-19.832-18.342-24.867
			c3.053-1.828,19.159,12.742,21.664,12.416c0.608-0.079-3.647-10.067-7.667-16.604c-2.848-4.63,3.09-5.633,4.247-4.82
			c4.35,3.055,9.285,13.778,10.01,19.608c3.109,25.002-18.528,40.938-18.528,40.938
			C1368.897,913.885,1346.143,885.527,1348.577,880.569z"/>
	</g>
</g>
</svg>
